<?xml version='1.0' encoding='utf-8'?>
<svg xmlns="http://www.w3.org/2000/svg" width="210mm" height="297mm" viewBox="0 0 210.0 297.0"><rect width="100%" height="100%" fill="white" /><g><line x1="100" y1="95.0" x2="100" y2="97.5" style="stroke:black;stroke-width:0.25;fill:none" /><line x1="100" y1="102.5" x2="100" y2="105.0" style="stroke:black;stroke-width:0.25;fill:none" /><line x1="100" y1="102.5" x2="97.5" y2="97.5" style="stroke:black;stroke-width:0.25;fill:none" /><text x="98.5" y="95.0" text-anchor="end" font-size="3.5" style="stroke:none;stroke-width:1.0;fill:black;font-family:sans-serif">1</text><text x="98.5" y="105.0" text-anchor="end" font-size="3.5" style="stroke:none;stroke-width:1.0;fill:black;font-family:sans-serif">2</text><line x1="110.0" y1="95.0" x2="110.0" y2="97.5" style="stroke:black;stroke-width:0.25;fill:none" /><line x1="110.0" y1="102.5" x2="110.0" y2="105.0" style="stroke:black;stroke-width:0.25;fill:none" /><line x1="110.0" y1="102.5" x2="107.5" y2="97.5" style="stroke:black;stroke-width:0.25;fill:none" /><text x="108.5" y="95.0" text-anchor="end" font-size="3.5" style="stroke:none;stroke-width:1.0;fill:black;font-family:sans-serif">3</text><text x="108.5" y="105.0" text-anchor="end" font-size="3.5" style="stroke:none;stroke-width:1.0;fill:black;font-family:sans-serif">4</text><line x1="120.0" y1="95.0" x2="120.0" y2="97.5" style="stroke:black;stroke-width:0.25;fill:none" /><line x1="120.0" y1="102.5" x2="120.0" y2="105.0" style="stroke:black;stroke-width:0.25;fill:none" /><line x1="120.0" y1="102.5" x2="117.5" y2="97.5" style="stroke:black;stroke-width:0.25;fill:none" /><text x="118.5" y="95.0" text-anchor="end" font-size="3.5" style="stroke:none;stroke-width:1.0;fill:black;font-family:sans-serif">5</text><text x="118.5" y="105.0" text-anchor="end" font-size="3.5" style="stroke:none;stroke-width:1.0;fill:black;font-family:sans-serif">6</text><polygon points="75.0,97.5 85.0,97.5 85.0,102.5 75.0,102.5" style="stroke:black;stroke-width:0.25;fill:none" /><line x1="80.0" y1="97.5" x2="80.0" y2="95.0" style="stroke:black;stroke-width:0.25;fill:none" /><line x1="80.0" y1="102.5" x2="80.0" y2="105.0" style="stroke:black;stroke-width:0.25;fill:none" /><text x="72.5" y="100" text-anchor="end" font-size="5.0" style="stroke:none;stroke-width:1.0;fill:black;font-family:Times New Roman">-K1</text><text x="78.5" y="95.0" text-anchor="end" font-size="3.5" style="stroke:none;stroke-width:1.0;fill:black;font-family:sans-serif">A1</text><text x="78.5" y="105.0" text-anchor="end" font-size="3.5" style="stroke:none;stroke-width:1.0;fill:black;font-family:sans-serif">A2</text><line x1="85.0" y1="100" x2="117.5" y2="100" style="stroke:black;stroke-width:0.25;fill:none;stroke-dasharray:2, 2" /></g></svg>