<?xml version='1.0' encoding='utf-8'?>
<svg xmlns="http://www.w3.org/2000/svg" width="200mm" height="100mm" viewBox="0 0 200.0 100.0"><rect width="100%" height="100%" fill="white" /><g><g class="symbol"><line x1="52.5" y1="52.5" x2="52.5" y2="55.0" style="stroke:black;stroke-width:0.25;fill:none" /><line x1="52.5" y1="45.0" x2="52.5" y2="47.5" style="stroke:black;stroke-width:0.25;fill:none" /><line x1="47.5" y1="45.0" x2="47.5" y2="47.5" style="stroke:black;stroke-width:0.25;fill:none" /><line x1="47.5" y1="47.5" x2="50" y2="47.5" style="stroke:black;stroke-width:0.25;fill:none" /><line x1="52.5" y1="52.5" x2="49.44098300562505" y2="46.38196601125011" style="stroke:black;stroke-width:0.25;fill:none" /><text x="45.0" y="50" text-anchor="end" dominant-baseline="auto" font-size="5.0" style="stroke:none;stroke-width:1.0;fill:black;font-family:Times New Roman">S1</text><text x="54.5" y="55.0" text-anchor="start" dominant-baseline="auto" font-size="3.5" style="stroke:none;stroke-width:1.0;fill:black;font-family:sans-serif">11</text><text x="45.5" y="45.0" text-anchor="end" dominant-baseline="auto" font-size="3.5" style="stroke:none;stroke-width:1.0;fill:black;font-family:sans-serif">12</text><text x="54.5" y="45.0" text-anchor="start" dominant-baseline="auto" font-size="3.5" style="stroke:none;stroke-width:1.0;fill:black;font-family:sans-serif">14</text></g><g class="symbol"><line x1="97.5" y1="47.5" x2="97.5" y2="45.0" style="stroke:black;stroke-width:0.25;fill:none" /><line x1="97.5" y1="55.0" x2="97.5" y2="52.5" style="stroke:black;stroke-width:0.25;fill:none" /><line x1="102.5" y1="55.0" x2="102.5" y2="52.5" style="stroke:black;stroke-width:0.25;fill:none" /><line x1="102.5" y1="52.5" x2="100.0" y2="52.5" style="stroke:black;stroke-width:0.25;fill:none" /><line x1="97.5" y1="47.5" x2="100.55901699437494" y2="53.61803398874989" style="stroke:black;stroke-width:0.25;fill:none" /><text x="95.0" y="50" text-anchor="end" dominant-baseline="auto" font-size="5.0" style="stroke:none;stroke-width:1.0;fill:black;font-family:Times New Roman">S2</text><text x="95.5" y="45.0" text-anchor="end" dominant-baseline="auto" font-size="3.5" style="stroke:none;stroke-width:1.0;fill:black;font-family:sans-serif">21</text><text x="104.5" y="55.0" text-anchor="start" dominant-baseline="auto" font-size="3.5" style="stroke:none;stroke-width:1.0;fill:black;font-family:sans-serif">22</text><text x="95.5" y="55.0" text-anchor="end" dominant-baseline="auto" font-size="3.5" style="stroke:none;stroke-width:1.0;fill:black;font-family:sans-serif">24</text></g><g class="symbol"><line x1="152.5" y1="52.5" x2="152.5" y2="55.0" style="stroke:black;stroke-width:0.25;fill:none" /><line x1="152.5" y1="45.0" x2="152.5" y2="47.5" style="stroke:black;stroke-width:0.25;fill:none" /><line x1="147.5" y1="45.0" x2="147.5" y2="47.5" style="stroke:black;stroke-width:0.25;fill:none" /><line x1="147.5" y1="47.5" x2="150" y2="47.5" style="stroke:black;stroke-width:0.25;fill:none" /><line x1="152.5" y1="52.5" x2="149.44098300562504" y2="46.38196601125011" style="stroke:black;stroke-width:0.25;fill:none" /></g></g></svg>