<?xml version='1.0' encoding='utf-8'?>
<svg xmlns="http://www.w3.org/2000/svg" width="297mm" height="297mm" viewBox="0 0 297.0 297.0"><rect width="100%" height="100%" fill="white" /><g><g class="symbol"><circle cx="50.0" cy="50" r="1.25" style="stroke:black;stroke-width:0.25;fill:none" /><text x="45.0" y="50" text-anchor="end" dominant-baseline="auto" font-size="5.0" style="stroke:none;stroke-width:1.0;fill:black;font-family:Times New Roman">X1</text><text x="48.5" y="50.0" text-anchor="end" dominant-baseline="auto" font-size="3.5" style="stroke:none;stroke-width:1.0;fill:black;font-family:sans-serif">1</text><circle cx="60.0" cy="50" r="1.25" style="stroke:black;stroke-width:0.25;fill:none" /><text x="58.5" y="50.0" text-anchor="end" dominant-baseline="auto" font-size="3.5" style="stroke:none;stroke-width:1.0;fill:black;font-family:sans-serif">2</text><circle cx="70.0" cy="50" r="1.25" style="stroke:black;stroke-width:0.25;fill:none" /><text x="68.5" y="50.0" text-anchor="end" dominant-baseline="auto" font-size="3.5" style="stroke:none;stroke-width:1.0;fill:black;font-family:sans-serif">3</text></g><g class="symbol"><line x1="50.0" y1="95.0" x2="50.0" y2="97.5" style="stroke:black;stroke-width:0.25;fill:none" /><line x1="50.0" y1="102.5" x2="50.0" y2="105.0" style="stroke:black;stroke-width:0.25;fill:none" /><line x1="50.0" y1="102.5" x2="47.5" y2="97.5" style="stroke:black;stroke-width:0.25;fill:none" /><line x1="48.75" y1="96.25" x2="51.25" y2="98.75" style="stroke:black;stroke-width:0.25;fill:none" /><line x1="48.75" y1="98.75" x2="51.25" y2="96.25" style="stroke:black;stroke-width:0.25;fill:none" /><text x="45.0" y="100.0" text-anchor="end" dominant-baseline="auto" font-size="5.0" style="stroke:none;stroke-width:1.0;fill:black;font-family:Times New Roman">F1</text><text x="48.5" y="95.0" text-anchor="end" dominant-baseline="auto" font-size="3.5" style="stroke:none;stroke-width:1.0;fill:black;font-family:sans-serif">1</text><text x="48.5" y="105.0" text-anchor="end" dominant-baseline="auto" font-size="3.5" style="stroke:none;stroke-width:1.0;fill:black;font-family:sans-serif">2</text><line x1="60.0" y1="95.0" x2="60.0" y2="97.5" style="stroke:black;stroke-width:0.25;fill:none" /><line x1="60.0" y1="102.5" x2="60.0" y2="105.0" style="stroke:black;stroke-width:0.25;fill:none" /><line x1="60.0" y1="102.5" x2="57.5" y2="97.5" style="stroke:black;stroke-width:0.25;fill:none" /><line x1="58.75" y1="96.25" x2="61.25" y2="98.75" style="stroke:black;stroke-width:0.25;fill:none" /><line x1="58.75" y1="98.75" x2="61.25" y2="96.25" style="stroke:black;stroke-width:0.25;fill:none" /><text x="58.5" y="95.0" text-anchor="end" dominant-baseline="auto" font-size="3.5" style="stroke:none;stroke-width:1.0;fill:black;font-family:sans-serif">3</text><text x="58.5" y="105.0" text-anchor="end" dominant-baseline="auto" font-size="3.5" style="stroke:none;stroke-width:1.0;fill:black;font-family:sans-serif">4</text><line x1="70.0" y1="95.0" x2="70.0" y2="97.5" style="stroke:black;stroke-width:0.25;fill:none" /><line x1="70.0" y1="102.5" x2="70.0" y2="105.0" style="stroke:black;stroke-width:0.25;fill:none" /><line x1="70.0" y1="102.5" x2="67.5" y2="97.5" style="stroke:black;stroke-width:0.25;fill:none" /><line x1="68.75" y1="96.25" x2="71.25" y2="98.75" style="stroke:black;stroke-width:0.25;fill:none" /><line x1="68.75" y1="98.75" x2="71.25" y2="96.25" style="stroke:black;stroke-width:0.25;fill:none" /><text x="68.5" y="95.0" text-anchor="end" dominant-baseline="auto" font-size="3.5" style="stroke:none;stroke-width:1.0;fill:black;font-family:sans-serif">5</text><text x="68.5" y="105.0" text-anchor="end" dominant-baseline="auto" font-size="3.5" style="stroke:none;stroke-width:1.0;fill:black;font-family:sans-serif">6</text></g><g class="symbol"><line x1="50.0" y1="115.0" x2="50.0" y2="116.25" style="stroke:black;stroke-width:0.25;fill:none" /><line x1="50.0" y1="116.25" x2="50.0" y2="118.75" style="stroke:black;stroke-width:0.25;fill:none" /><line x1="50.0" y1="118.75" x2="47.5" y2="118.75" style="stroke:black;stroke-width:0.25;fill:none" /><line x1="47.5" y1="118.75" x2="47.5" y2="121.25" style="stroke:black;stroke-width:0.25;fill:none" /><line x1="47.5" y1="121.25" x2="50.0" y2="121.25" style="stroke:black;stroke-width:0.25;fill:none" /><line x1="50.0" y1="121.25" x2="50.0" y2="123.75" style="stroke:black;stroke-width:0.25;fill:none" /><line x1="50.0" y1="123.75" x2="50.0" y2="125.0" style="stroke:black;stroke-width:0.25;fill:none" /><text x="45.0" y="120.0" text-anchor="end" dominant-baseline="auto" font-size="5.0" style="stroke:none;stroke-width:1.0;fill:black;font-family:Times New Roman">FT1</text><text x="48.5" y="125.0" text-anchor="end" dominant-baseline="auto" font-size="3.5" style="stroke:none;stroke-width:1.0;fill:black;font-family:sans-serif">2</text><line x1="60.0" y1="115.0" x2="60.0" y2="116.25" style="stroke:black;stroke-width:0.25;fill:none" /><line x1="60.0" y1="116.25" x2="60.0" y2="118.75" style="stroke:black;stroke-width:0.25;fill:none" /><line x1="60.0" y1="118.75" x2="57.5" y2="118.75" style="stroke:black;stroke-width:0.25;fill:none" /><line x1="57.5" y1="118.75" x2="57.5" y2="121.25" style="stroke:black;stroke-width:0.25;fill:none" /><line x1="57.5" y1="121.25" x2="60.0" y2="121.25" style="stroke:black;stroke-width:0.25;fill:none" /><line x1="60.0" y1="121.25" x2="60.0" y2="123.75" style="stroke:black;stroke-width:0.25;fill:none" /><line x1="60.0" y1="123.75" x2="60.0" y2="125.0" style="stroke:black;stroke-width:0.25;fill:none" /><text x="58.5" y="125.0" text-anchor="end" dominant-baseline="auto" font-size="3.5" style="stroke:none;stroke-width:1.0;fill:black;font-family:sans-serif">4</text><line x1="70.0" y1="115.0" x2="70.0" y2="116.25" style="stroke:black;stroke-width:0.25;fill:none" /><line x1="70.0" y1="116.25" x2="70.0" y2="118.75" style="stroke:black;stroke-width:0.25;fill:none" /><line x1="70.0" y1="118.75" x2="67.5" y2="118.75" style="stroke:black;stroke-width:0.25;fill:none" /><line x1="67.5" y1="118.75" x2="67.5" y2="121.25" style="stroke:black;stroke-width:0.25;fill:none" /><line x1="67.5" y1="121.25" x2="70.0" y2="121.25" style="stroke:black;stroke-width:0.25;fill:none" /><line x1="70.0" y1="121.25" x2="70.0" y2="123.75" style="stroke:black;stroke-width:0.25;fill:none" /><line x1="70.0" y1="123.75" x2="70.0" y2="125.0" style="stroke:black;stroke-width:0.25;fill:none" /><text x="68.5" y="125.0" text-anchor="end" dominant-baseline="auto" font-size="3.5" style="stroke:none;stroke-width:1.0;fill:black;font-family:sans-serif">6</text></g><g class="symbol"><line x1="50.0" y1="165.0" x2="50.0" y2="167.5" style="stroke:black;stroke-width:0.25;fill:none" /><line x1="50.0" y1="172.5" x2="50.0" y2="175.0" style="stroke:black;stroke-width:0.25;fill:none" /><line x1="50.0" y1="172.5" x2="47.5" y2="167.5" style="stroke:black;stroke-width:0.25;fill:none" /><text x="48.5" y="165.0" text-anchor="end" dominant-baseline="auto" font-size="3.5" style="stroke:none;stroke-width:1.0;fill:black;font-family:sans-serif">1</text><text x="48.5" y="175.0" text-anchor="end" dominant-baseline="auto" font-size="3.5" style="stroke:none;stroke-width:1.0;fill:black;font-family:sans-serif">2</text><line x1="60.0" y1="165.0" x2="60.0" y2="167.5" style="stroke:black;stroke-width:0.25;fill:none" /><line x1="60.0" y1="172.5" x2="60.0" y2="175.0" style="stroke:black;stroke-width:0.25;fill:none" /><line x1="60.0" y1="172.5" x2="57.5" y2="167.5" style="stroke:black;stroke-width:0.25;fill:none" /><text x="58.5" y="165.0" text-anchor="end" dominant-baseline="auto" font-size="3.5" style="stroke:none;stroke-width:1.0;fill:black;font-family:sans-serif">3</text><text x="58.5" y="175.0" text-anchor="end" dominant-baseline="auto" font-size="3.5" style="stroke:none;stroke-width:1.0;fill:black;font-family:sans-serif">4</text><line x1="70.0" y1="165.0" x2="70.0" y2="167.5" style="stroke:black;stroke-width:0.25;fill:none" /><line x1="70.0" y1="172.5" x2="70.0" y2="175.0" style="stroke:black;stroke-width:0.25;fill:none" /><line x1="70.0" y1="172.5" x2="67.5" y2="167.5" style="stroke:black;stroke-width:0.25;fill:none" /><text x="68.5" y="165.0" text-anchor="end" dominant-baseline="auto" font-size="3.5" style="stroke:none;stroke-width:1.0;fill:black;font-family:sans-serif">5</text><text x="68.5" y="175.0" text-anchor="end" dominant-baseline="auto" font-size="3.5" style="stroke:none;stroke-width:1.0;fill:black;font-family:sans-serif">6</text><polygon points="25.0,167.5 35.0,167.5 35.0,172.5 25.0,172.5" style="stroke:black;stroke-width:0.25;fill:none" /><line x1="30.0" y1="167.5" x2="30.0" y2="165.0" style="stroke:black;stroke-width:0.25;fill:none" /><line x1="30.0" y1="172.5" x2="30.0" y2="175.0" style="stroke:black;stroke-width:0.25;fill:none" /><text x="22.5" y="170.0" text-anchor="end" dominant-baseline="auto" font-size="5.0" style="stroke:none;stroke-width:1.0;fill:black;font-family:Times New Roman">Q1</text><text x="28.5" y="165.0" text-anchor="end" dominant-baseline="auto" font-size="3.5" style="stroke:none;stroke-width:1.0;fill:black;font-family:sans-serif">A1</text><text x="28.5" y="175.0" text-anchor="end" dominant-baseline="auto" font-size="3.5" style="stroke:none;stroke-width:1.0;fill:black;font-family:sans-serif">A2</text><line x1="35.0" y1="170.0" x2="67.5" y2="170.0" style="stroke:black;stroke-width:0.25;fill:none;stroke-dasharray:2, 2" /></g><g class="symbol"><circle cx="50.0" cy="195.0" r="2.5" style="stroke:black;stroke-width:0.25;fill:none" /><line x1="47.5" y1="195.0" x2="42.5" y2="195.0" style="stroke:black;stroke-width:0.25;fill:none" /><polygon points="7.5,192.5 42.5,192.5 42.5,202.5 7.5,202.5" style="stroke:black;stroke-width:0.25;fill:none" /><line x1="10.0" y1="192.5" x2="10.0" y2="190.0" style="stroke:black;stroke-width:0.25;fill:none" /><text x="9.0" y="191.25" text-anchor="end" dominant-baseline="middle" font-size="3.5" style="stroke:none;stroke-width:1.0;fill:black;font-family:sans-serif">1</text><line x1="20.0" y1="192.5" x2="20.0" y2="190.0" style="stroke:black;stroke-width:0.25;fill:none" /><text x="19.0" y="191.25" text-anchor="end" dominant-baseline="middle" font-size="3.5" style="stroke:none;stroke-width:1.0;fill:black;font-family:sans-serif">2</text><line x1="30.0" y1="192.5" x2="30.0" y2="190.0" style="stroke:black;stroke-width:0.25;fill:none" /><text x="29.0" y="191.25" text-anchor="end" dominant-baseline="middle" font-size="3.5" style="stroke:none;stroke-width:1.0;fill:black;font-family:sans-serif">3</text><line x1="40.0" y1="192.5" x2="40.0" y2="190.0" style="stroke:black;stroke-width:0.25;fill:none" /><text x="39.0" y="191.25" text-anchor="end" dominant-baseline="middle" font-size="3.5" style="stroke:none;stroke-width:1.0;fill:black;font-family:sans-serif">4</text><text x="5.0" y="192.5" text-anchor="end" dominant-baseline="auto" font-size="5.0" style="stroke:none;stroke-width:1.0;fill:black;font-family:Times New Roman">T1</text></g><g class="symbol"><circle cx="50.0" cy="220.0" r="1.25" style="stroke:black;stroke-width:0.25;fill:none" /><text x="45.0" y="220.0" text-anchor="end" dominant-baseline="auto" font-size="5.0" style="stroke:none;stroke-width:1.0;fill:black;font-family:Times New Roman">X2</text><text x="48.5" y="220.0" text-anchor="end" dominant-baseline="auto" font-size="3.5" style="stroke:none;stroke-width:1.0;fill:black;font-family:sans-serif">1</text><circle cx="60.0" cy="220.0" r="1.25" style="stroke:black;stroke-width:0.25;fill:none" /><text x="58.5" y="220.0" text-anchor="end" dominant-baseline="auto" font-size="3.5" style="stroke:none;stroke-width:1.0;fill:black;font-family:sans-serif">2</text><circle cx="70.0" cy="220.0" r="1.25" style="stroke:black;stroke-width:0.25;fill:none" /><text x="68.5" y="220.0" text-anchor="end" dominant-baseline="auto" font-size="3.5" style="stroke:none;stroke-width:1.0;fill:black;font-family:sans-serif">3</text></g><line x1="50.0" y1="50" x2="50.0" y2="95.0" style="stroke:black;stroke-width:0.25;fill:none" /><text x="47.5" y="72.5" text-anchor="middle" dominant-baseline="middle" font-size="3.5" transform="rotate(90.0, 47.5, 72.5)" style="stroke:none;stroke-width:1.0;fill:black;font-family:sans-serif">RD 2.5mm²</text><line x1="60.0" y1="50" x2="60.0" y2="95.0" style="stroke:black;stroke-width:0.25;fill:none" /><text x="57.5" y="72.5" text-anchor="middle" dominant-baseline="middle" font-size="3.5" transform="rotate(90.0, 57.5, 72.5)" style="stroke:none;stroke-width:1.0;fill:black;font-family:sans-serif">BK 2.5mm²</text><line x1="70.0" y1="50" x2="70.0" y2="95.0" style="stroke:black;stroke-width:0.25;fill:none" /><text x="67.5" y="72.5" text-anchor="middle" dominant-baseline="middle" font-size="3.5" transform="rotate(90.0, 67.5, 72.5)" style="stroke:none;stroke-width:1.0;fill:black;font-family:sans-serif">BN 2.5mm²</text><line x1="50.0" y1="105.0" x2="50.0" y2="115.0" style="stroke:black;stroke-width:0.25;fill:none" /><line x1="60.0" y1="105.0" x2="60.0" y2="115.0" style="stroke:black;stroke-width:0.25;fill:none" /><line x1="70.0" y1="105.0" x2="70.0" y2="115.0" style="stroke:black;stroke-width:0.25;fill:none" /><line x1="50.0" y1="125.0" x2="50.0" y2="165.0" style="stroke:black;stroke-width:0.25;fill:none" /><text x="47.5" y="145.0" text-anchor="middle" dominant-baseline="middle" font-size="3.5" transform="rotate(90.0, 47.5, 145.0)" style="stroke:none;stroke-width:1.0;fill:black;font-family:sans-serif">RD 2.5mm²</text><line x1="60.0" y1="125.0" x2="60.0" y2="165.0" style="stroke:black;stroke-width:0.25;fill:none" /><text x="57.5" y="145.0" text-anchor="middle" dominant-baseline="middle" font-size="3.5" transform="rotate(90.0, 57.5, 145.0)" style="stroke:none;stroke-width:1.0;fill:black;font-family:sans-serif">BK 2.5mm²</text><line x1="70.0" y1="125.0" x2="70.0" y2="165.0" style="stroke:black;stroke-width:0.25;fill:none" /><text x="67.5" y="145.0" text-anchor="middle" dominant-baseline="middle" font-size="3.5" transform="rotate(90.0, 67.5, 145.0)" style="stroke:none;stroke-width:1.0;fill:black;font-family:sans-serif">BN 2.5mm²</text><line x1="50.0" y1="175.0" x2="50.0" y2="220.0" style="stroke:black;stroke-width:0.25;fill:none" /><text x="47.5" y="197.5" text-anchor="middle" dominant-baseline="middle" font-size="3.5" transform="rotate(90.0, 47.5, 197.5)" style="stroke:none;stroke-width:1.0;fill:black;font-family:sans-serif">RD 1.5mm²</text><line x1="60.0" y1="175.0" x2="60.0" y2="220.0" style="stroke:black;stroke-width:0.25;fill:none" /><text x="57.5" y="197.5" text-anchor="middle" dominant-baseline="middle" font-size="3.5" transform="rotate(90.0, 57.5, 197.5)" style="stroke:none;stroke-width:1.0;fill:black;font-family:sans-serif">BK 1.5mm²</text><line x1="70.0" y1="175.0" x2="70.0" y2="220.0" style="stroke:black;stroke-width:0.25;fill:none" /><text x="67.5" y="197.5" text-anchor="middle" dominant-baseline="middle" font-size="3.5" transform="rotate(90.0, 67.5, 197.5)" style="stroke:none;stroke-width:1.0;fill:black;font-family:sans-serif">BN 1.5mm²</text><g class="symbol"><circle cx="125.0" cy="50" r="1.25" style="stroke:black;stroke-width:0.25;fill:none" /><text x="120.0" y="50" text-anchor="end" dominant-baseline="auto" font-size="5.0" style="stroke:none;stroke-width:1.0;fill:black;font-family:Times New Roman">X1</text><text x="123.5" y="50.0" text-anchor="end" dominant-baseline="auto" font-size="3.5" style="stroke:none;stroke-width:1.0;fill:black;font-family:sans-serif">4</text><circle cx="135.0" cy="50" r="1.25" style="stroke:black;stroke-width:0.25;fill:none" /><text x="133.5" y="50.0" text-anchor="end" dominant-baseline="auto" font-size="3.5" style="stroke:none;stroke-width:1.0;fill:black;font-family:sans-serif">5</text><circle cx="145.0" cy="50" r="1.25" style="stroke:black;stroke-width:0.25;fill:none" /><text x="143.5" y="50.0" text-anchor="end" dominant-baseline="auto" font-size="3.5" style="stroke:none;stroke-width:1.0;fill:black;font-family:sans-serif">6</text></g><g class="symbol"><line x1="125.0" y1="95.0" x2="125.0" y2="97.5" style="stroke:black;stroke-width:0.25;fill:none" /><line x1="125.0" y1="102.5" x2="125.0" y2="105.0" style="stroke:black;stroke-width:0.25;fill:none" /><line x1="125.0" y1="102.5" x2="122.5" y2="97.5" style="stroke:black;stroke-width:0.25;fill:none" /><line x1="123.75" y1="96.25" x2="126.25" y2="98.75" style="stroke:black;stroke-width:0.25;fill:none" /><line x1="123.75" y1="98.75" x2="126.25" y2="96.25" style="stroke:black;stroke-width:0.25;fill:none" /><text x="120.0" y="100.0" text-anchor="end" dominant-baseline="auto" font-size="5.0" style="stroke:none;stroke-width:1.0;fill:black;font-family:Times New Roman">F2</text><text x="123.5" y="95.0" text-anchor="end" dominant-baseline="auto" font-size="3.5" style="stroke:none;stroke-width:1.0;fill:black;font-family:sans-serif">1</text><text x="123.5" y="105.0" text-anchor="end" dominant-baseline="auto" font-size="3.5" style="stroke:none;stroke-width:1.0;fill:black;font-family:sans-serif">2</text><line x1="135.0" y1="95.0" x2="135.0" y2="97.5" style="stroke:black;stroke-width:0.25;fill:none" /><line x1="135.0" y1="102.5" x2="135.0" y2="105.0" style="stroke:black;stroke-width:0.25;fill:none" /><line x1="135.0" y1="102.5" x2="132.5" y2="97.5" style="stroke:black;stroke-width:0.25;fill:none" /><line x1="133.75" y1="96.25" x2="136.25" y2="98.75" style="stroke:black;stroke-width:0.25;fill:none" /><line x1="133.75" y1="98.75" x2="136.25" y2="96.25" style="stroke:black;stroke-width:0.25;fill:none" /><text x="133.5" y="95.0" text-anchor="end" dominant-baseline="auto" font-size="3.5" style="stroke:none;stroke-width:1.0;fill:black;font-family:sans-serif">3</text><text x="133.5" y="105.0" text-anchor="end" dominant-baseline="auto" font-size="3.5" style="stroke:none;stroke-width:1.0;fill:black;font-family:sans-serif">4</text><line x1="145.0" y1="95.0" x2="145.0" y2="97.5" style="stroke:black;stroke-width:0.25;fill:none" /><line x1="145.0" y1="102.5" x2="145.0" y2="105.0" style="stroke:black;stroke-width:0.25;fill:none" /><line x1="145.0" y1="102.5" x2="142.5" y2="97.5" style="stroke:black;stroke-width:0.25;fill:none" /><line x1="143.75" y1="96.25" x2="146.25" y2="98.75" style="stroke:black;stroke-width:0.25;fill:none" /><line x1="143.75" y1="98.75" x2="146.25" y2="96.25" style="stroke:black;stroke-width:0.25;fill:none" /><text x="143.5" y="95.0" text-anchor="end" dominant-baseline="auto" font-size="3.5" style="stroke:none;stroke-width:1.0;fill:black;font-family:sans-serif">5</text><text x="143.5" y="105.0" text-anchor="end" dominant-baseline="auto" font-size="3.5" style="stroke:none;stroke-width:1.0;fill:black;font-family:sans-serif">6</text></g><g class="symbol"><line x1="125.0" y1="115.0" x2="125.0" y2="116.25" style="stroke:black;stroke-width:0.25;fill:none" /><line x1="125.0" y1="116.25" x2="125.0" y2="118.75" style="stroke:black;stroke-width:0.25;fill:none" /><line x1="125.0" y1="118.75" x2="122.5" y2="118.75" style="stroke:black;stroke-width:0.25;fill:none" /><line x1="122.5" y1="118.75" x2="122.5" y2="121.25" style="stroke:black;stroke-width:0.25;fill:none" /><line x1="122.5" y1="121.25" x2="125.0" y2="121.25" style="stroke:black;stroke-width:0.25;fill:none" /><line x1="125.0" y1="121.25" x2="125.0" y2="123.75" style="stroke:black;stroke-width:0.25;fill:none" /><line x1="125.0" y1="123.75" x2="125.0" y2="125.0" style="stroke:black;stroke-width:0.25;fill:none" /><text x="120.0" y="120.0" text-anchor="end" dominant-baseline="auto" font-size="5.0" style="stroke:none;stroke-width:1.0;fill:black;font-family:Times New Roman">FT2</text><text x="123.5" y="125.0" text-anchor="end" dominant-baseline="auto" font-size="3.5" style="stroke:none;stroke-width:1.0;fill:black;font-family:sans-serif">2</text><line x1="135.0" y1="115.0" x2="135.0" y2="116.25" style="stroke:black;stroke-width:0.25;fill:none" /><line x1="135.0" y1="116.25" x2="135.0" y2="118.75" style="stroke:black;stroke-width:0.25;fill:none" /><line x1="135.0" y1="118.75" x2="132.5" y2="118.75" style="stroke:black;stroke-width:0.25;fill:none" /><line x1="132.5" y1="118.75" x2="132.5" y2="121.25" style="stroke:black;stroke-width:0.25;fill:none" /><line x1="132.5" y1="121.25" x2="135.0" y2="121.25" style="stroke:black;stroke-width:0.25;fill:none" /><line x1="135.0" y1="121.25" x2="135.0" y2="123.75" style="stroke:black;stroke-width:0.25;fill:none" /><line x1="135.0" y1="123.75" x2="135.0" y2="125.0" style="stroke:black;stroke-width:0.25;fill:none" /><text x="133.5" y="125.0" text-anchor="end" dominant-baseline="auto" font-size="3.5" style="stroke:none;stroke-width:1.0;fill:black;font-family:sans-serif">4</text><line x1="145.0" y1="115.0" x2="145.0" y2="116.25" style="stroke:black;stroke-width:0.25;fill:none" /><line x1="145.0" y1="116.25" x2="145.0" y2="118.75" style="stroke:black;stroke-width:0.25;fill:none" /><line x1="145.0" y1="118.75" x2="142.5" y2="118.75" style="stroke:black;stroke-width:0.25;fill:none" /><line x1="142.5" y1="118.75" x2="142.5" y2="121.25" style="stroke:black;stroke-width:0.25;fill:none" /><line x1="142.5" y1="121.25" x2="145.0" y2="121.25" style="stroke:black;stroke-width:0.25;fill:none" /><line x1="145.0" y1="121.25" x2="145.0" y2="123.75" style="stroke:black;stroke-width:0.25;fill:none" /><line x1="145.0" y1="123.75" x2="145.0" y2="125.0" style="stroke:black;stroke-width:0.25;fill:none" /><text x="143.5" y="125.0" text-anchor="end" dominant-baseline="auto" font-size="3.5" style="stroke:none;stroke-width:1.0;fill:black;font-family:sans-serif">6</text></g><g class="symbol"><line x1="125.0" y1="165.0" x2="125.0" y2="167.5" style="stroke:black;stroke-width:0.25;fill:none" /><line x1="125.0" y1="172.5" x2="125.0" y2="175.0" style="stroke:black;stroke-width:0.25;fill:none" /><line x1="125.0" y1="172.5" x2="122.5" y2="167.5" style="stroke:black;stroke-width:0.25;fill:none" /><text x="123.5" y="165.0" text-anchor="end" dominant-baseline="auto" font-size="3.5" style="stroke:none;stroke-width:1.0;fill:black;font-family:sans-serif">1</text><text x="123.5" y="175.0" text-anchor="end" dominant-baseline="auto" font-size="3.5" style="stroke:none;stroke-width:1.0;fill:black;font-family:sans-serif">2</text><line x1="135.0" y1="165.0" x2="135.0" y2="167.5" style="stroke:black;stroke-width:0.25;fill:none" /><line x1="135.0" y1="172.5" x2="135.0" y2="175.0" style="stroke:black;stroke-width:0.25;fill:none" /><line x1="135.0" y1="172.5" x2="132.5" y2="167.5" style="stroke:black;stroke-width:0.25;fill:none" /><text x="133.5" y="165.0" text-anchor="end" dominant-baseline="auto" font-size="3.5" style="stroke:none;stroke-width:1.0;fill:black;font-family:sans-serif">3</text><text x="133.5" y="175.0" text-anchor="end" dominant-baseline="auto" font-size="3.5" style="stroke:none;stroke-width:1.0;fill:black;font-family:sans-serif">4</text><line x1="145.0" y1="165.0" x2="145.0" y2="167.5" style="stroke:black;stroke-width:0.25;fill:none" /><line x1="145.0" y1="172.5" x2="145.0" y2="175.0" style="stroke:black;stroke-width:0.25;fill:none" /><line x1="145.0" y1="172.5" x2="142.5" y2="167.5" style="stroke:black;stroke-width:0.25;fill:none" /><text x="143.5" y="165.0" text-anchor="end" dominant-baseline="auto" font-size="3.5" style="stroke:none;stroke-width:1.0;fill:black;font-family:sans-serif">5</text><text x="143.5" y="175.0" text-anchor="end" dominant-baseline="auto" font-size="3.5" style="stroke:none;stroke-width:1.0;fill:black;font-family:sans-serif">6</text><polygon points="100.0,167.5 110.0,167.5 110.0,172.5 100.0,172.5" style="stroke:black;stroke-width:0.25;fill:none" /><line x1="105.0" y1="167.5" x2="105.0" y2="165.0" style="stroke:black;stroke-width:0.25;fill:none" /><line x1="105.0" y1="172.5" x2="105.0" y2="175.0" style="stroke:black;stroke-width:0.25;fill:none" /><text x="97.5" y="170.0" text-anchor="end" dominant-baseline="auto" font-size="5.0" style="stroke:none;stroke-width:1.0;fill:black;font-family:Times New Roman">Q2</text><text x="103.5" y="165.0" text-anchor="end" dominant-baseline="auto" font-size="3.5" style="stroke:none;stroke-width:1.0;fill:black;font-family:sans-serif">A1</text><text x="103.5" y="175.0" text-anchor="end" dominant-baseline="auto" font-size="3.5" style="stroke:none;stroke-width:1.0;fill:black;font-family:sans-serif">A2</text><line x1="110.0" y1="170.0" x2="142.5" y2="170.0" style="stroke:black;stroke-width:0.25;fill:none;stroke-dasharray:2, 2" /></g><g class="symbol"><circle cx="125.0" cy="195.0" r="2.5" style="stroke:black;stroke-width:0.25;fill:none" /><line x1="122.5" y1="195.0" x2="117.5" y2="195.0" style="stroke:black;stroke-width:0.25;fill:none" /><polygon points="82.5,192.5 117.5,192.5 117.5,202.5 82.5,202.5" style="stroke:black;stroke-width:0.25;fill:none" /><line x1="85.0" y1="192.5" x2="85.0" y2="190.0" style="stroke:black;stroke-width:0.25;fill:none" /><text x="84.0" y="191.25" text-anchor="end" dominant-baseline="middle" font-size="3.5" style="stroke:none;stroke-width:1.0;fill:black;font-family:sans-serif">1</text><line x1="95.0" y1="192.5" x2="95.0" y2="190.0" style="stroke:black;stroke-width:0.25;fill:none" /><text x="94.0" y="191.25" text-anchor="end" dominant-baseline="middle" font-size="3.5" style="stroke:none;stroke-width:1.0;fill:black;font-family:sans-serif">2</text><line x1="105.0" y1="192.5" x2="105.0" y2="190.0" style="stroke:black;stroke-width:0.25;fill:none" /><text x="104.0" y="191.25" text-anchor="end" dominant-baseline="middle" font-size="3.5" style="stroke:none;stroke-width:1.0;fill:black;font-family:sans-serif">3</text><line x1="115.0" y1="192.5" x2="115.0" y2="190.0" style="stroke:black;stroke-width:0.25;fill:none" /><text x="114.0" y="191.25" text-anchor="end" dominant-baseline="middle" font-size="3.5" style="stroke:none;stroke-width:1.0;fill:black;font-family:sans-serif">4</text><text x="80.0" y="192.5" text-anchor="end" dominant-baseline="auto" font-size="5.0" style="stroke:none;stroke-width:1.0;fill:black;font-family:Times New Roman">T1</text></g><g class="symbol"><circle cx="125.0" cy="220.0" r="1.25" style="stroke:black;stroke-width:0.25;fill:none" /><text x="120.0" y="220.0" text-anchor="end" dominant-baseline="auto" font-size="5.0" style="stroke:none;stroke-width:1.0;fill:black;font-family:Times New Roman">X2</text><text x="123.5" y="220.0" text-anchor="end" dominant-baseline="auto" font-size="3.5" style="stroke:none;stroke-width:1.0;fill:black;font-family:sans-serif">4</text><circle cx="135.0" cy="220.0" r="1.25" style="stroke:black;stroke-width:0.25;fill:none" /><text x="133.5" y="220.0" text-anchor="end" dominant-baseline="auto" font-size="3.5" style="stroke:none;stroke-width:1.0;fill:black;font-family:sans-serif">5</text><circle cx="145.0" cy="220.0" r="1.25" style="stroke:black;stroke-width:0.25;fill:none" /><text x="143.5" y="220.0" text-anchor="end" dominant-baseline="auto" font-size="3.5" style="stroke:none;stroke-width:1.0;fill:black;font-family:sans-serif">6</text></g><line x1="125.0" y1="50" x2="125.0" y2="95.0" style="stroke:black;stroke-width:0.25;fill:none" /><text x="122.5" y="72.5" text-anchor="middle" dominant-baseline="middle" font-size="3.5" transform="rotate(90.0, 122.5, 72.5)" style="stroke:none;stroke-width:1.0;fill:black;font-family:sans-serif">RD 2.5mm²</text><line x1="135.0" y1="50" x2="135.0" y2="95.0" style="stroke:black;stroke-width:0.25;fill:none" /><text x="132.5" y="72.5" text-anchor="middle" dominant-baseline="middle" font-size="3.5" transform="rotate(90.0, 132.5, 72.5)" style="stroke:none;stroke-width:1.0;fill:black;font-family:sans-serif">BK 2.5mm²</text><line x1="145.0" y1="50" x2="145.0" y2="95.0" style="stroke:black;stroke-width:0.25;fill:none" /><text x="142.5" y="72.5" text-anchor="middle" dominant-baseline="middle" font-size="3.5" transform="rotate(90.0, 142.5, 72.5)" style="stroke:none;stroke-width:1.0;fill:black;font-family:sans-serif">BN 2.5mm²</text><line x1="125.0" y1="105.0" x2="125.0" y2="115.0" style="stroke:black;stroke-width:0.25;fill:none" /><line x1="135.0" y1="105.0" x2="135.0" y2="115.0" style="stroke:black;stroke-width:0.25;fill:none" /><line x1="145.0" y1="105.0" x2="145.0" y2="115.0" style="stroke:black;stroke-width:0.25;fill:none" /><line x1="125.0" y1="125.0" x2="125.0" y2="165.0" style="stroke:black;stroke-width:0.25;fill:none" /><text x="122.5" y="145.0" text-anchor="middle" dominant-baseline="middle" font-size="3.5" transform="rotate(90.0, 122.5, 145.0)" style="stroke:none;stroke-width:1.0;fill:black;font-family:sans-serif">RD 2.5mm²</text><line x1="135.0" y1="125.0" x2="135.0" y2="165.0" style="stroke:black;stroke-width:0.25;fill:none" /><text x="132.5" y="145.0" text-anchor="middle" dominant-baseline="middle" font-size="3.5" transform="rotate(90.0, 132.5, 145.0)" style="stroke:none;stroke-width:1.0;fill:black;font-family:sans-serif">BK 2.5mm²</text><line x1="145.0" y1="125.0" x2="145.0" y2="165.0" style="stroke:black;stroke-width:0.25;fill:none" /><text x="142.5" y="145.0" text-anchor="middle" dominant-baseline="middle" font-size="3.5" transform="rotate(90.0, 142.5, 145.0)" style="stroke:none;stroke-width:1.0;fill:black;font-family:sans-serif">BN 2.5mm²</text><line x1="125.0" y1="175.0" x2="125.0" y2="220.0" style="stroke:black;stroke-width:0.25;fill:none" /><text x="122.5" y="197.5" text-anchor="middle" dominant-baseline="middle" font-size="3.5" transform="rotate(90.0, 122.5, 197.5)" style="stroke:none;stroke-width:1.0;fill:black;font-family:sans-serif">RD 1.5mm²</text><line x1="135.0" y1="175.0" x2="135.0" y2="220.0" style="stroke:black;stroke-width:0.25;fill:none" /><text x="132.5" y="197.5" text-anchor="middle" dominant-baseline="middle" font-size="3.5" transform="rotate(90.0, 132.5, 197.5)" style="stroke:none;stroke-width:1.0;fill:black;font-family:sans-serif">BK 1.5mm²</text><line x1="145.0" y1="175.0" x2="145.0" y2="220.0" style="stroke:black;stroke-width:0.25;fill:none" /><text x="142.5" y="197.5" text-anchor="middle" dominant-baseline="middle" font-size="3.5" transform="rotate(90.0, 142.5, 197.5)" style="stroke:none;stroke-width:1.0;fill:black;font-family:sans-serif">BN 1.5mm²</text><g class="symbol"><circle cx="200.0" cy="50" r="1.25" style="stroke:black;stroke-width:0.25;fill:none" /><text x="195.0" y="50" text-anchor="end" dominant-baseline="auto" font-size="5.0" style="stroke:none;stroke-width:1.0;fill:black;font-family:Times New Roman">X1</text><text x="198.5" y="50.0" text-anchor="end" dominant-baseline="auto" font-size="3.5" style="stroke:none;stroke-width:1.0;fill:black;font-family:sans-serif">7</text><circle cx="210.0" cy="50" r="1.25" style="stroke:black;stroke-width:0.25;fill:none" /><text x="208.5" y="50.0" text-anchor="end" dominant-baseline="auto" font-size="3.5" style="stroke:none;stroke-width:1.0;fill:black;font-family:sans-serif">8</text><circle cx="220.0" cy="50" r="1.25" style="stroke:black;stroke-width:0.25;fill:none" /><text x="218.5" y="50.0" text-anchor="end" dominant-baseline="auto" font-size="3.5" style="stroke:none;stroke-width:1.0;fill:black;font-family:sans-serif">9</text></g><g class="symbol"><line x1="200.0" y1="95.0" x2="200.0" y2="97.5" style="stroke:black;stroke-width:0.25;fill:none" /><line x1="200.0" y1="102.5" x2="200.0" y2="105.0" style="stroke:black;stroke-width:0.25;fill:none" /><line x1="200.0" y1="102.5" x2="197.5" y2="97.5" style="stroke:black;stroke-width:0.25;fill:none" /><line x1="198.75" y1="96.25" x2="201.25" y2="98.75" style="stroke:black;stroke-width:0.25;fill:none" /><line x1="198.75" y1="98.75" x2="201.25" y2="96.25" style="stroke:black;stroke-width:0.25;fill:none" /><text x="195.0" y="100.0" text-anchor="end" dominant-baseline="auto" font-size="5.0" style="stroke:none;stroke-width:1.0;fill:black;font-family:Times New Roman">F3</text><text x="198.5" y="95.0" text-anchor="end" dominant-baseline="auto" font-size="3.5" style="stroke:none;stroke-width:1.0;fill:black;font-family:sans-serif">1</text><text x="198.5" y="105.0" text-anchor="end" dominant-baseline="auto" font-size="3.5" style="stroke:none;stroke-width:1.0;fill:black;font-family:sans-serif">2</text><line x1="210.0" y1="95.0" x2="210.0" y2="97.5" style="stroke:black;stroke-width:0.25;fill:none" /><line x1="210.0" y1="102.5" x2="210.0" y2="105.0" style="stroke:black;stroke-width:0.25;fill:none" /><line x1="210.0" y1="102.5" x2="207.5" y2="97.5" style="stroke:black;stroke-width:0.25;fill:none" /><line x1="208.75" y1="96.25" x2="211.25" y2="98.75" style="stroke:black;stroke-width:0.25;fill:none" /><line x1="208.75" y1="98.75" x2="211.25" y2="96.25" style="stroke:black;stroke-width:0.25;fill:none" /><text x="208.5" y="95.0" text-anchor="end" dominant-baseline="auto" font-size="3.5" style="stroke:none;stroke-width:1.0;fill:black;font-family:sans-serif">3</text><text x="208.5" y="105.0" text-anchor="end" dominant-baseline="auto" font-size="3.5" style="stroke:none;stroke-width:1.0;fill:black;font-family:sans-serif">4</text><line x1="220.0" y1="95.0" x2="220.0" y2="97.5" style="stroke:black;stroke-width:0.25;fill:none" /><line x1="220.0" y1="102.5" x2="220.0" y2="105.0" style="stroke:black;stroke-width:0.25;fill:none" /><line x1="220.0" y1="102.5" x2="217.5" y2="97.5" style="stroke:black;stroke-width:0.25;fill:none" /><line x1="218.75" y1="96.25" x2="221.25" y2="98.75" style="stroke:black;stroke-width:0.25;fill:none" /><line x1="218.75" y1="98.75" x2="221.25" y2="96.25" style="stroke:black;stroke-width:0.25;fill:none" /><text x="218.5" y="95.0" text-anchor="end" dominant-baseline="auto" font-size="3.5" style="stroke:none;stroke-width:1.0;fill:black;font-family:sans-serif">5</text><text x="218.5" y="105.0" text-anchor="end" dominant-baseline="auto" font-size="3.5" style="stroke:none;stroke-width:1.0;fill:black;font-family:sans-serif">6</text></g><g class="symbol"><line x1="200.0" y1="115.0" x2="200.0" y2="116.25" style="stroke:black;stroke-width:0.25;fill:none" /><line x1="200.0" y1="116.25" x2="200.0" y2="118.75" style="stroke:black;stroke-width:0.25;fill:none" /><line x1="200.0" y1="118.75" x2="197.5" y2="118.75" style="stroke:black;stroke-width:0.25;fill:none" /><line x1="197.5" y1="118.75" x2="197.5" y2="121.25" style="stroke:black;stroke-width:0.25;fill:none" /><line x1="197.5" y1="121.25" x2="200.0" y2="121.25" style="stroke:black;stroke-width:0.25;fill:none" /><line x1="200.0" y1="121.25" x2="200.0" y2="123.75" style="stroke:black;stroke-width:0.25;fill:none" /><line x1="200.0" y1="123.75" x2="200.0" y2="125.0" style="stroke:black;stroke-width:0.25;fill:none" /><text x="195.0" y="120.0" text-anchor="end" dominant-baseline="auto" font-size="5.0" style="stroke:none;stroke-width:1.0;fill:black;font-family:Times New Roman">FT3</text><text x="198.5" y="125.0" text-anchor="end" dominant-baseline="auto" font-size="3.5" style="stroke:none;stroke-width:1.0;fill:black;font-family:sans-serif">2</text><line x1="210.0" y1="115.0" x2="210.0" y2="116.25" style="stroke:black;stroke-width:0.25;fill:none" /><line x1="210.0" y1="116.25" x2="210.0" y2="118.75" style="stroke:black;stroke-width:0.25;fill:none" /><line x1="210.0" y1="118.75" x2="207.5" y2="118.75" style="stroke:black;stroke-width:0.25;fill:none" /><line x1="207.5" y1="118.75" x2="207.5" y2="121.25" style="stroke:black;stroke-width:0.25;fill:none" /><line x1="207.5" y1="121.25" x2="210.0" y2="121.25" style="stroke:black;stroke-width:0.25;fill:none" /><line x1="210.0" y1="121.25" x2="210.0" y2="123.75" style="stroke:black;stroke-width:0.25;fill:none" /><line x1="210.0" y1="123.75" x2="210.0" y2="125.0" style="stroke:black;stroke-width:0.25;fill:none" /><text x="208.5" y="125.0" text-anchor="end" dominant-baseline="auto" font-size="3.5" style="stroke:none;stroke-width:1.0;fill:black;font-family:sans-serif">4</text><line x1="220.0" y1="115.0" x2="220.0" y2="116.25" style="stroke:black;stroke-width:0.25;fill:none" /><line x1="220.0" y1="116.25" x2="220.0" y2="118.75" style="stroke:black;stroke-width:0.25;fill:none" /><line x1="220.0" y1="118.75" x2="217.5" y2="118.75" style="stroke:black;stroke-width:0.25;fill:none" /><line x1="217.5" y1="118.75" x2="217.5" y2="121.25" style="stroke:black;stroke-width:0.25;fill:none" /><line x1="217.5" y1="121.25" x2="220.0" y2="121.25" style="stroke:black;stroke-width:0.25;fill:none" /><line x1="220.0" y1="121.25" x2="220.0" y2="123.75" style="stroke:black;stroke-width:0.25;fill:none" /><line x1="220.0" y1="123.75" x2="220.0" y2="125.0" style="stroke:black;stroke-width:0.25;fill:none" /><text x="218.5" y="125.0" text-anchor="end" dominant-baseline="auto" font-size="3.5" style="stroke:none;stroke-width:1.0;fill:black;font-family:sans-serif">6</text></g><g class="symbol"><line x1="200.0" y1="165.0" x2="200.0" y2="167.5" style="stroke:black;stroke-width:0.25;fill:none" /><line x1="200.0" y1="172.5" x2="200.0" y2="175.0" style="stroke:black;stroke-width:0.25;fill:none" /><line x1="200.0" y1="172.5" x2="197.5" y2="167.5" style="stroke:black;stroke-width:0.25;fill:none" /><text x="198.5" y="165.0" text-anchor="end" dominant-baseline="auto" font-size="3.5" style="stroke:none;stroke-width:1.0;fill:black;font-family:sans-serif">1</text><text x="198.5" y="175.0" text-anchor="end" dominant-baseline="auto" font-size="3.5" style="stroke:none;stroke-width:1.0;fill:black;font-family:sans-serif">2</text><line x1="210.0" y1="165.0" x2="210.0" y2="167.5" style="stroke:black;stroke-width:0.25;fill:none" /><line x1="210.0" y1="172.5" x2="210.0" y2="175.0" style="stroke:black;stroke-width:0.25;fill:none" /><line x1="210.0" y1="172.5" x2="207.5" y2="167.5" style="stroke:black;stroke-width:0.25;fill:none" /><text x="208.5" y="165.0" text-anchor="end" dominant-baseline="auto" font-size="3.5" style="stroke:none;stroke-width:1.0;fill:black;font-family:sans-serif">3</text><text x="208.5" y="175.0" text-anchor="end" dominant-baseline="auto" font-size="3.5" style="stroke:none;stroke-width:1.0;fill:black;font-family:sans-serif">4</text><line x1="220.0" y1="165.0" x2="220.0" y2="167.5" style="stroke:black;stroke-width:0.25;fill:none" /><line x1="220.0" y1="172.5" x2="220.0" y2="175.0" style="stroke:black;stroke-width:0.25;fill:none" /><line x1="220.0" y1="172.5" x2="217.5" y2="167.5" style="stroke:black;stroke-width:0.25;fill:none" /><text x="218.5" y="165.0" text-anchor="end" dominant-baseline="auto" font-size="3.5" style="stroke:none;stroke-width:1.0;fill:black;font-family:sans-serif">5</text><text x="218.5" y="175.0" text-anchor="end" dominant-baseline="auto" font-size="3.5" style="stroke:none;stroke-width:1.0;fill:black;font-family:sans-serif">6</text><polygon points="175.0,167.5 185.0,167.5 185.0,172.5 175.0,172.5" style="stroke:black;stroke-width:0.25;fill:none" /><line x1="180.0" y1="167.5" x2="180.0" y2="165.0" style="stroke:black;stroke-width:0.25;fill:none" /><line x1="180.0" y1="172.5" x2="180.0" y2="175.0" style="stroke:black;stroke-width:0.25;fill:none" /><text x="172.5" y="170.0" text-anchor="end" dominant-baseline="auto" font-size="5.0" style="stroke:none;stroke-width:1.0;fill:black;font-family:Times New Roman">Q3</text><text x="178.5" y="165.0" text-anchor="end" dominant-baseline="auto" font-size="3.5" style="stroke:none;stroke-width:1.0;fill:black;font-family:sans-serif">A1</text><text x="178.5" y="175.0" text-anchor="end" dominant-baseline="auto" font-size="3.5" style="stroke:none;stroke-width:1.0;fill:black;font-family:sans-serif">A2</text><line x1="185.0" y1="170.0" x2="217.5" y2="170.0" style="stroke:black;stroke-width:0.25;fill:none;stroke-dasharray:2, 2" /></g><g class="symbol"><circle cx="200.0" cy="195.0" r="2.5" style="stroke:black;stroke-width:0.25;fill:none" /><line x1="197.5" y1="195.0" x2="192.5" y2="195.0" style="stroke:black;stroke-width:0.25;fill:none" /><polygon points="157.5,192.5 192.5,192.5 192.5,202.5 157.5,202.5" style="stroke:black;stroke-width:0.25;fill:none" /><line x1="160.0" y1="192.5" x2="160.0" y2="190.0" style="stroke:black;stroke-width:0.25;fill:none" /><text x="159.0" y="191.25" text-anchor="end" dominant-baseline="middle" font-size="3.5" style="stroke:none;stroke-width:1.0;fill:black;font-family:sans-serif">1</text><line x1="170.0" y1="192.5" x2="170.0" y2="190.0" style="stroke:black;stroke-width:0.25;fill:none" /><text x="169.0" y="191.25" text-anchor="end" dominant-baseline="middle" font-size="3.5" style="stroke:none;stroke-width:1.0;fill:black;font-family:sans-serif">2</text><line x1="180.0" y1="192.5" x2="180.0" y2="190.0" style="stroke:black;stroke-width:0.25;fill:none" /><text x="179.0" y="191.25" text-anchor="end" dominant-baseline="middle" font-size="3.5" style="stroke:none;stroke-width:1.0;fill:black;font-family:sans-serif">3</text><line x1="190.0" y1="192.5" x2="190.0" y2="190.0" style="stroke:black;stroke-width:0.25;fill:none" /><text x="189.0" y="191.25" text-anchor="end" dominant-baseline="middle" font-size="3.5" style="stroke:none;stroke-width:1.0;fill:black;font-family:sans-serif">4</text><text x="155.0" y="192.5" text-anchor="end" dominant-baseline="auto" font-size="5.0" style="stroke:none;stroke-width:1.0;fill:black;font-family:Times New Roman">T1</text></g><g class="symbol"><circle cx="200.0" cy="220.0" r="1.25" style="stroke:black;stroke-width:0.25;fill:none" /><text x="195.0" y="220.0" text-anchor="end" dominant-baseline="auto" font-size="5.0" style="stroke:none;stroke-width:1.0;fill:black;font-family:Times New Roman">X2</text><text x="198.5" y="220.0" text-anchor="end" dominant-baseline="auto" font-size="3.5" style="stroke:none;stroke-width:1.0;fill:black;font-family:sans-serif">7</text><circle cx="210.0" cy="220.0" r="1.25" style="stroke:black;stroke-width:0.25;fill:none" /><text x="208.5" y="220.0" text-anchor="end" dominant-baseline="auto" font-size="3.5" style="stroke:none;stroke-width:1.0;fill:black;font-family:sans-serif">8</text><circle cx="220.0" cy="220.0" r="1.25" style="stroke:black;stroke-width:0.25;fill:none" /><text x="218.5" y="220.0" text-anchor="end" dominant-baseline="auto" font-size="3.5" style="stroke:none;stroke-width:1.0;fill:black;font-family:sans-serif">9</text></g><line x1="200.0" y1="50" x2="200.0" y2="95.0" style="stroke:black;stroke-width:0.25;fill:none" /><text x="197.5" y="72.5" text-anchor="middle" dominant-baseline="middle" font-size="3.5" transform="rotate(90.0, 197.5, 72.5)" style="stroke:none;stroke-width:1.0;fill:black;font-family:sans-serif">RD 2.5mm²</text><line x1="210.0" y1="50" x2="210.0" y2="95.0" style="stroke:black;stroke-width:0.25;fill:none" /><text x="207.5" y="72.5" text-anchor="middle" dominant-baseline="middle" font-size="3.5" transform="rotate(90.0, 207.5, 72.5)" style="stroke:none;stroke-width:1.0;fill:black;font-family:sans-serif">BK 2.5mm²</text><line x1="220.0" y1="50" x2="220.0" y2="95.0" style="stroke:black;stroke-width:0.25;fill:none" /><text x="217.5" y="72.5" text-anchor="middle" dominant-baseline="middle" font-size="3.5" transform="rotate(90.0, 217.5, 72.5)" style="stroke:none;stroke-width:1.0;fill:black;font-family:sans-serif">BN 2.5mm²</text><line x1="200.0" y1="105.0" x2="200.0" y2="115.0" style="stroke:black;stroke-width:0.25;fill:none" /><line x1="210.0" y1="105.0" x2="210.0" y2="115.0" style="stroke:black;stroke-width:0.25;fill:none" /><line x1="220.0" y1="105.0" x2="220.0" y2="115.0" style="stroke:black;stroke-width:0.25;fill:none" /><line x1="200.0" y1="125.0" x2="200.0" y2="165.0" style="stroke:black;stroke-width:0.25;fill:none" /><text x="197.5" y="145.0" text-anchor="middle" dominant-baseline="middle" font-size="3.5" transform="rotate(90.0, 197.5, 145.0)" style="stroke:none;stroke-width:1.0;fill:black;font-family:sans-serif">RD 2.5mm²</text><line x1="210.0" y1="125.0" x2="210.0" y2="165.0" style="stroke:black;stroke-width:0.25;fill:none" /><text x="207.5" y="145.0" text-anchor="middle" dominant-baseline="middle" font-size="3.5" transform="rotate(90.0, 207.5, 145.0)" style="stroke:none;stroke-width:1.0;fill:black;font-family:sans-serif">BK 2.5mm²</text><line x1="220.0" y1="125.0" x2="220.0" y2="165.0" style="stroke:black;stroke-width:0.25;fill:none" /><text x="217.5" y="145.0" text-anchor="middle" dominant-baseline="middle" font-size="3.5" transform="rotate(90.0, 217.5, 145.0)" style="stroke:none;stroke-width:1.0;fill:black;font-family:sans-serif">BN 2.5mm²</text><line x1="200.0" y1="175.0" x2="200.0" y2="220.0" style="stroke:black;stroke-width:0.25;fill:none" /><text x="197.5" y="197.5" text-anchor="middle" dominant-baseline="middle" font-size="3.5" transform="rotate(90.0, 197.5, 197.5)" style="stroke:none;stroke-width:1.0;fill:black;font-family:sans-serif">RD 1.5mm²</text><line x1="210.0" y1="175.0" x2="210.0" y2="220.0" style="stroke:black;stroke-width:0.25;fill:none" /><text x="207.5" y="197.5" text-anchor="middle" dominant-baseline="middle" font-size="3.5" transform="rotate(90.0, 207.5, 197.5)" style="stroke:none;stroke-width:1.0;fill:black;font-family:sans-serif">BK 1.5mm²</text><line x1="220.0" y1="175.0" x2="220.0" y2="220.0" style="stroke:black;stroke-width:0.25;fill:none" /><text x="217.5" y="197.5" text-anchor="middle" dominant-baseline="middle" font-size="3.5" transform="rotate(90.0, 217.5, 197.5)" style="stroke:none;stroke-width:1.0;fill:black;font-family:sans-serif">BN 1.5mm²</text></g></svg>