<?xml version='1.0' encoding='utf-8'?>
<svg xmlns="http://www.w3.org/2000/svg" width="123.5mm" height="275.0mm" viewBox="-75.0 -25 123.5 275.0"><rect x="-75.0" y="-25" width="123.5" height="275.0" fill="white" /><g><g class="symbol"><circle cx="0.0" cy="0" r="1.25" style="stroke:black;stroke-width:0.25;fill:none" /><text x="-5.0" y="0" text-anchor="end" dominant-baseline="auto" font-size="5.0" style="stroke:none;stroke-width:1.0;fill:black;font-family:Times New Roman">X1</text><text x="-1.5" y="0.0" text-anchor="end" dominant-baseline="auto" font-size="3.5" style="stroke:none;stroke-width:1.0;fill:black;font-family:sans-serif">1</text><circle cx="10.0" cy="0" r="1.25" style="stroke:black;stroke-width:0.25;fill:none" /><text x="8.5" y="0.0" text-anchor="end" dominant-baseline="auto" font-size="3.5" style="stroke:none;stroke-width:1.0;fill:black;font-family:sans-serif">2</text><circle cx="20.0" cy="0" r="1.25" style="stroke:black;stroke-width:0.25;fill:none" /><text x="18.5" y="0.0" text-anchor="end" dominant-baseline="auto" font-size="3.5" style="stroke:none;stroke-width:1.0;fill:black;font-family:sans-serif">3</text></g><g class="symbol"><line x1="0.0" y1="45.0" x2="0.0" y2="47.5" style="stroke:black;stroke-width:0.25;fill:none" /><line x1="0.0" y1="52.5" x2="0.0" y2="55.0" style="stroke:black;stroke-width:0.25;fill:none" /><line x1="0.0" y1="52.5" x2="-2.5" y2="47.5" style="stroke:black;stroke-width:0.25;fill:none" /><line x1="-1.25" y1="46.25" x2="1.25" y2="48.75" style="stroke:black;stroke-width:0.25;fill:none" /><line x1="-1.25" y1="48.75" x2="1.25" y2="46.25" style="stroke:black;stroke-width:0.25;fill:none" /><text x="-5.0" y="50.0" text-anchor="end" dominant-baseline="auto" font-size="5.0" style="stroke:none;stroke-width:1.0;fill:black;font-family:Times New Roman">F1</text><text x="-1.5" y="45.0" text-anchor="end" dominant-baseline="auto" font-size="3.5" style="stroke:none;stroke-width:1.0;fill:black;font-family:sans-serif">1</text><text x="-1.5" y="55.0" text-anchor="end" dominant-baseline="auto" font-size="3.5" style="stroke:none;stroke-width:1.0;fill:black;font-family:sans-serif">2</text><line x1="10.0" y1="45.0" x2="10.0" y2="47.5" style="stroke:black;stroke-width:0.25;fill:none" /><line x1="10.0" y1="52.5" x2="10.0" y2="55.0" style="stroke:black;stroke-width:0.25;fill:none" /><line x1="10.0" y1="52.5" x2="7.5" y2="47.5" style="stroke:black;stroke-width:0.25;fill:none" /><line x1="8.75" y1="46.25" x2="11.25" y2="48.75" style="stroke:black;stroke-width:0.25;fill:none" /><line x1="8.75" y1="48.75" x2="11.25" y2="46.25" style="stroke:black;stroke-width:0.25;fill:none" /><text x="8.5" y="45.0" text-anchor="end" dominant-baseline="auto" font-size="3.5" style="stroke:none;stroke-width:1.0;fill:black;font-family:sans-serif">3</text><text x="8.5" y="55.0" text-anchor="end" dominant-baseline="auto" font-size="3.5" style="stroke:none;stroke-width:1.0;fill:black;font-family:sans-serif">4</text><line x1="20.0" y1="45.0" x2="20.0" y2="47.5" style="stroke:black;stroke-width:0.25;fill:none" /><line x1="20.0" y1="52.5" x2="20.0" y2="55.0" style="stroke:black;stroke-width:0.25;fill:none" /><line x1="20.0" y1="52.5" x2="17.5" y2="47.5" style="stroke:black;stroke-width:0.25;fill:none" /><line x1="18.75" y1="46.25" x2="21.25" y2="48.75" style="stroke:black;stroke-width:0.25;fill:none" /><line x1="18.75" y1="48.75" x2="21.25" y2="46.25" style="stroke:black;stroke-width:0.25;fill:none" /><text x="18.5" y="45.0" text-anchor="end" dominant-baseline="auto" font-size="3.5" style="stroke:none;stroke-width:1.0;fill:black;font-family:sans-serif">5</text><text x="18.5" y="55.0" text-anchor="end" dominant-baseline="auto" font-size="3.5" style="stroke:none;stroke-width:1.0;fill:black;font-family:sans-serif">6</text></g><g class="symbol"><line x1="0.0" y1="70.0" x2="0.0" y2="71.25" style="stroke:black;stroke-width:0.25;fill:none" /><line x1="0.0" y1="71.25" x2="0.0" y2="73.75" style="stroke:black;stroke-width:0.25;fill:none" /><line x1="0.0" y1="73.75" x2="-2.5" y2="73.75" style="stroke:black;stroke-width:0.25;fill:none" /><line x1="-2.5" y1="73.75" x2="-2.5" y2="76.25" style="stroke:black;stroke-width:0.25;fill:none" /><line x1="-2.5" y1="76.25" x2="0.0" y2="76.25" style="stroke:black;stroke-width:0.25;fill:none" /><line x1="0.0" y1="76.25" x2="0.0" y2="78.75" style="stroke:black;stroke-width:0.25;fill:none" /><line x1="0.0" y1="78.75" x2="0.0" y2="80.0" style="stroke:black;stroke-width:0.25;fill:none" /><text x="-5.0" y="75.0" text-anchor="end" dominant-baseline="auto" font-size="5.0" style="stroke:none;stroke-width:1.0;fill:black;font-family:Times New Roman">FT1</text><text x="-1.5" y="80.0" text-anchor="end" dominant-baseline="auto" font-size="3.5" style="stroke:none;stroke-width:1.0;fill:black;font-family:sans-serif">T1</text><line x1="10.0" y1="70.0" x2="10.0" y2="71.25" style="stroke:black;stroke-width:0.25;fill:none" /><line x1="10.0" y1="71.25" x2="10.0" y2="73.75" style="stroke:black;stroke-width:0.25;fill:none" /><line x1="10.0" y1="73.75" x2="7.5" y2="73.75" style="stroke:black;stroke-width:0.25;fill:none" /><line x1="7.5" y1="73.75" x2="7.5" y2="76.25" style="stroke:black;stroke-width:0.25;fill:none" /><line x1="7.5" y1="76.25" x2="10.0" y2="76.25" style="stroke:black;stroke-width:0.25;fill:none" /><line x1="10.0" y1="76.25" x2="10.0" y2="78.75" style="stroke:black;stroke-width:0.25;fill:none" /><line x1="10.0" y1="78.75" x2="10.0" y2="80.0" style="stroke:black;stroke-width:0.25;fill:none" /><text x="8.5" y="80.0" text-anchor="end" dominant-baseline="auto" font-size="3.5" style="stroke:none;stroke-width:1.0;fill:black;font-family:sans-serif">T2</text><line x1="20.0" y1="70.0" x2="20.0" y2="71.25" style="stroke:black;stroke-width:0.25;fill:none" /><line x1="20.0" y1="71.25" x2="20.0" y2="73.75" style="stroke:black;stroke-width:0.25;fill:none" /><line x1="20.0" y1="73.75" x2="17.5" y2="73.75" style="stroke:black;stroke-width:0.25;fill:none" /><line x1="17.5" y1="73.75" x2="17.5" y2="76.25" style="stroke:black;stroke-width:0.25;fill:none" /><line x1="17.5" y1="76.25" x2="20.0" y2="76.25" style="stroke:black;stroke-width:0.25;fill:none" /><line x1="20.0" y1="76.25" x2="20.0" y2="78.75" style="stroke:black;stroke-width:0.25;fill:none" /><line x1="20.0" y1="78.75" x2="20.0" y2="80.0" style="stroke:black;stroke-width:0.25;fill:none" /><text x="18.5" y="80.0" text-anchor="end" dominant-baseline="auto" font-size="3.5" style="stroke:none;stroke-width:1.0;fill:black;font-family:sans-serif">T3</text></g><g class="symbol"><line x1="0.0" y1="120.0" x2="0.0" y2="122.5" style="stroke:black;stroke-width:0.25;fill:none" /><line x1="0.0" y1="127.5" x2="0.0" y2="130.0" style="stroke:black;stroke-width:0.25;fill:none" /><line x1="0.0" y1="127.5" x2="-2.5" y2="122.5" style="stroke:black;stroke-width:0.25;fill:none" /><text x="-1.5" y="120.0" text-anchor="end" dominant-baseline="auto" font-size="3.5" style="stroke:none;stroke-width:1.0;fill:black;font-family:sans-serif">1</text><text x="-1.5" y="130.0" text-anchor="end" dominant-baseline="auto" font-size="3.5" style="stroke:none;stroke-width:1.0;fill:black;font-family:sans-serif">2</text><line x1="10.0" y1="120.0" x2="10.0" y2="122.5" style="stroke:black;stroke-width:0.25;fill:none" /><line x1="10.0" y1="127.5" x2="10.0" y2="130.0" style="stroke:black;stroke-width:0.25;fill:none" /><line x1="10.0" y1="127.5" x2="7.5" y2="122.5" style="stroke:black;stroke-width:0.25;fill:none" /><text x="8.5" y="120.0" text-anchor="end" dominant-baseline="auto" font-size="3.5" style="stroke:none;stroke-width:1.0;fill:black;font-family:sans-serif">3</text><text x="8.5" y="130.0" text-anchor="end" dominant-baseline="auto" font-size="3.5" style="stroke:none;stroke-width:1.0;fill:black;font-family:sans-serif">4</text><line x1="20.0" y1="120.0" x2="20.0" y2="122.5" style="stroke:black;stroke-width:0.25;fill:none" /><line x1="20.0" y1="127.5" x2="20.0" y2="130.0" style="stroke:black;stroke-width:0.25;fill:none" /><line x1="20.0" y1="127.5" x2="17.5" y2="122.5" style="stroke:black;stroke-width:0.25;fill:none" /><text x="18.5" y="120.0" text-anchor="end" dominant-baseline="auto" font-size="3.5" style="stroke:none;stroke-width:1.0;fill:black;font-family:sans-serif">5</text><text x="18.5" y="130.0" text-anchor="end" dominant-baseline="auto" font-size="3.5" style="stroke:none;stroke-width:1.0;fill:black;font-family:sans-serif">6</text><polygon points="-25.0,122.5 -15.0,122.5 -15.0,127.5 -25.0,127.5" style="stroke:black;stroke-width:0.25;fill:none" /><text x="-27.5" y="125.0" text-anchor="end" dominant-baseline="auto" font-size="5.0" style="stroke:none;stroke-width:1.0;fill:black;font-family:Times New Roman">Q1</text><line x1="-15.0" y1="125.0" x2="17.5" y2="125.0" style="stroke:black;stroke-width:0.25;fill:none;stroke-dasharray:2, 2" /></g><g class="symbol"><circle cx="0.0" cy="175.0" r="2.5" style="stroke:black;stroke-width:0.25;fill:none" /><line x1="-2.5" y1="175.0" x2="-7.5" y2="175.0" style="stroke:black;stroke-width:0.25;fill:none" /><polygon points="-42.5,172.5 -7.5,172.5 -7.5,182.5 -42.5,182.5" style="stroke:black;stroke-width:0.25;fill:none" /><line x1="-40.0" y1="172.5" x2="-40.0" y2="170.0" style="stroke:black;stroke-width:0.25;fill:none" /><text x="-41.0" y="171.25" text-anchor="end" dominant-baseline="middle" font-size="3.5" style="stroke:none;stroke-width:1.0;fill:black;font-family:sans-serif">1</text><line x1="-30.0" y1="172.5" x2="-30.0" y2="170.0" style="stroke:black;stroke-width:0.25;fill:none" /><text x="-31.0" y="171.25" text-anchor="end" dominant-baseline="middle" font-size="3.5" style="stroke:none;stroke-width:1.0;fill:black;font-family:sans-serif">2</text><line x1="-20.0" y1="172.5" x2="-20.0" y2="170.0" style="stroke:black;stroke-width:0.25;fill:none" /><text x="-21.0" y="171.25" text-anchor="end" dominant-baseline="middle" font-size="3.5" style="stroke:none;stroke-width:1.0;fill:black;font-family:sans-serif">3</text><line x1="-10.0" y1="172.5" x2="-10.0" y2="170.0" style="stroke:black;stroke-width:0.25;fill:none" /><text x="-11.0" y="171.25" text-anchor="end" dominant-baseline="middle" font-size="3.5" style="stroke:none;stroke-width:1.0;fill:black;font-family:sans-serif">4</text><text x="-45.0" y="172.5" text-anchor="end" dominant-baseline="auto" font-size="5.0" style="stroke:none;stroke-width:1.0;fill:black;font-family:Times New Roman">CT1</text></g><g class="symbol"><circle cx="0.0" cy="225.0" r="1.25" style="stroke:black;stroke-width:0.25;fill:none" /><text x="-5.0" y="225.0" text-anchor="end" dominant-baseline="auto" font-size="5.0" style="stroke:none;stroke-width:1.0;fill:black;font-family:Times New Roman">X10</text><text x="-1.5" y="225.0" text-anchor="end" dominant-baseline="auto" font-size="3.5" style="stroke:none;stroke-width:1.0;fill:black;font-family:sans-serif">1</text><circle cx="10.0" cy="225.0" r="1.25" style="stroke:black;stroke-width:0.25;fill:none" /><text x="8.5" y="225.0" text-anchor="end" dominant-baseline="auto" font-size="3.5" style="stroke:none;stroke-width:1.0;fill:black;font-family:sans-serif">2</text><circle cx="20.0" cy="225.0" r="1.25" style="stroke:black;stroke-width:0.25;fill:none" /><text x="18.5" y="225.0" text-anchor="end" dominant-baseline="auto" font-size="3.5" style="stroke:none;stroke-width:1.0;fill:black;font-family:sans-serif">3</text></g><line x1="0.0" y1="0" x2="0.0" y2="45.0" style="stroke:black;stroke-width:0.25;fill:none" /><line x1="10.0" y1="0" x2="10.0" y2="45.0" style="stroke:black;stroke-width:0.25;fill:none" /><line x1="20.0" y1="0" x2="20.0" y2="45.0" style="stroke:black;stroke-width:0.25;fill:none" /><line x1="0.0" y1="55.0" x2="0.0" y2="70.0" style="stroke:black;stroke-width:0.25;fill:none" /><line x1="10.0" y1="55.0" x2="10.0" y2="70.0" style="stroke:black;stroke-width:0.25;fill:none" /><line x1="20.0" y1="55.0" x2="20.0" y2="70.0" style="stroke:black;stroke-width:0.25;fill:none" /><line x1="0.0" y1="80.0" x2="0.0" y2="120.0" style="stroke:black;stroke-width:0.25;fill:none" /><line x1="10.0" y1="80.0" x2="10.0" y2="120.0" style="stroke:black;stroke-width:0.25;fill:none" /><line x1="20.0" y1="80.0" x2="20.0" y2="120.0" style="stroke:black;stroke-width:0.25;fill:none" /><line x1="0.0" y1="130.0" x2="0.0" y2="225.0" style="stroke:black;stroke-width:0.25;fill:none" /><line x1="10.0" y1="130.0" x2="10.0" y2="225.0" style="stroke:black;stroke-width:0.25;fill:none" /><line x1="20.0" y1="130.0" x2="20.0" y2="225.0" style="stroke:black;stroke-width:0.25;fill:none" /></g></svg>