<?xml version='1.0' encoding='utf-8'?>
<svg xmlns="http://www.w3.org/2000/svg" width="140.0mm" height="248.33333333333334mm" viewBox="-75.0 -25 140.0 248.33333333333334"><rect x="-75.0" y="-25" width="140.0" height="248.33333333333334" fill="white" /><g><g class="symbol"><circle cx="0.0" cy="0" r="1.25" style="stroke:black;stroke-width:0.25;fill:none" /><text x="-5.0" y="0" text-anchor="end" dominant-baseline="auto" font-size="5.0" style="stroke:none;stroke-width:1.0;fill:black;font-family:Times New Roman">X1</text><text x="-1.5" y="0.0" text-anchor="end" dominant-baseline="auto" font-size="3.5" style="stroke:none;stroke-width:1.0;fill:black;font-family:sans-serif">L1</text><circle cx="10.0" cy="0" r="1.25" style="stroke:black;stroke-width:0.25;fill:none" /><text x="8.5" y="0.0" text-anchor="end" dominant-baseline="auto" font-size="3.5" style="stroke:none;stroke-width:1.0;fill:black;font-family:sans-serif">L2</text><circle cx="20.0" cy="0" r="1.25" style="stroke:black;stroke-width:0.25;fill:none" /><text x="18.5" y="0.0" text-anchor="end" dominant-baseline="auto" font-size="3.5" style="stroke:none;stroke-width:1.0;fill:black;font-family:sans-serif">L3</text></g><g class="symbol"><line x1="0.0" y1="28.333333333333336" x2="0.0" y2="30.833333333333336" style="stroke:black;stroke-width:0.25;fill:none" /><line x1="0.0" y1="35.833333333333336" x2="0.0" y2="38.333333333333336" style="stroke:black;stroke-width:0.25;fill:none" /><line x1="0.0" y1="35.833333333333336" x2="-2.5" y2="30.833333333333336" style="stroke:black;stroke-width:0.25;fill:none" /><line x1="-1.25" y1="29.583333333333336" x2="1.25" y2="32.083333333333336" style="stroke:black;stroke-width:0.25;fill:none" /><line x1="-1.25" y1="32.083333333333336" x2="1.25" y2="29.583333333333336" style="stroke:black;stroke-width:0.25;fill:none" /><text x="-5.0" y="33.333333333333336" text-anchor="end" dominant-baseline="auto" font-size="5.0" style="stroke:none;stroke-width:1.0;fill:black;font-family:Times New Roman">F1</text><text x="-1.5" y="28.333333333333336" text-anchor="end" dominant-baseline="auto" font-size="3.5" style="stroke:none;stroke-width:1.0;fill:black;font-family:sans-serif">1L1</text><text x="-1.5" y="38.333333333333336" text-anchor="end" dominant-baseline="auto" font-size="3.5" style="stroke:none;stroke-width:1.0;fill:black;font-family:sans-serif">2T1</text><line x1="10.0" y1="28.333333333333336" x2="10.0" y2="30.833333333333336" style="stroke:black;stroke-width:0.25;fill:none" /><line x1="10.0" y1="35.833333333333336" x2="10.0" y2="38.333333333333336" style="stroke:black;stroke-width:0.25;fill:none" /><line x1="10.0" y1="35.833333333333336" x2="7.5" y2="30.833333333333336" style="stroke:black;stroke-width:0.25;fill:none" /><line x1="8.75" y1="29.583333333333336" x2="11.25" y2="32.083333333333336" style="stroke:black;stroke-width:0.25;fill:none" /><line x1="8.75" y1="32.083333333333336" x2="11.25" y2="29.583333333333336" style="stroke:black;stroke-width:0.25;fill:none" /><text x="8.5" y="28.333333333333336" text-anchor="end" dominant-baseline="auto" font-size="3.5" style="stroke:none;stroke-width:1.0;fill:black;font-family:sans-serif">3L2</text><text x="8.5" y="38.333333333333336" text-anchor="end" dominant-baseline="auto" font-size="3.5" style="stroke:none;stroke-width:1.0;fill:black;font-family:sans-serif">4T2</text><line x1="20.0" y1="28.333333333333336" x2="20.0" y2="30.833333333333336" style="stroke:black;stroke-width:0.25;fill:none" /><line x1="20.0" y1="35.833333333333336" x2="20.0" y2="38.333333333333336" style="stroke:black;stroke-width:0.25;fill:none" /><line x1="20.0" y1="35.833333333333336" x2="17.5" y2="30.833333333333336" style="stroke:black;stroke-width:0.25;fill:none" /><line x1="18.75" y1="29.583333333333336" x2="21.25" y2="32.083333333333336" style="stroke:black;stroke-width:0.25;fill:none" /><line x1="18.75" y1="32.083333333333336" x2="21.25" y2="29.583333333333336" style="stroke:black;stroke-width:0.25;fill:none" /><text x="18.5" y="28.333333333333336" text-anchor="end" dominant-baseline="auto" font-size="3.5" style="stroke:none;stroke-width:1.0;fill:black;font-family:sans-serif">5L3</text><text x="18.5" y="38.333333333333336" text-anchor="end" dominant-baseline="auto" font-size="3.5" style="stroke:none;stroke-width:1.0;fill:black;font-family:sans-serif">6T3</text></g><g class="symbol"><line x1="0.0" y1="45.0" x2="0.0" y2="46.25" style="stroke:black;stroke-width:0.25;fill:none" /><line x1="0.0" y1="46.25" x2="0.0" y2="48.75" style="stroke:black;stroke-width:0.25;fill:none" /><line x1="0.0" y1="48.75" x2="-2.5" y2="48.75" style="stroke:black;stroke-width:0.25;fill:none" /><line x1="-2.5" y1="48.75" x2="-2.5" y2="51.25" style="stroke:black;stroke-width:0.25;fill:none" /><line x1="-2.5" y1="51.25" x2="0.0" y2="51.25" style="stroke:black;stroke-width:0.25;fill:none" /><line x1="0.0" y1="51.25" x2="0.0" y2="53.75" style="stroke:black;stroke-width:0.25;fill:none" /><line x1="0.0" y1="53.75" x2="0.0" y2="55.0" style="stroke:black;stroke-width:0.25;fill:none" /><text x="-5.0" y="50.0" text-anchor="end" dominant-baseline="auto" font-size="5.0" style="stroke:none;stroke-width:1.0;fill:black;font-family:Times New Roman">FT1</text><line x1="10.0" y1="45.0" x2="10.0" y2="46.25" style="stroke:black;stroke-width:0.25;fill:none" /><line x1="10.0" y1="46.25" x2="10.0" y2="48.75" style="stroke:black;stroke-width:0.25;fill:none" /><line x1="10.0" y1="48.75" x2="7.5" y2="48.75" style="stroke:black;stroke-width:0.25;fill:none" /><line x1="7.5" y1="48.75" x2="7.5" y2="51.25" style="stroke:black;stroke-width:0.25;fill:none" /><line x1="7.5" y1="51.25" x2="10.0" y2="51.25" style="stroke:black;stroke-width:0.25;fill:none" /><line x1="10.0" y1="51.25" x2="10.0" y2="53.75" style="stroke:black;stroke-width:0.25;fill:none" /><line x1="10.0" y1="53.75" x2="10.0" y2="55.0" style="stroke:black;stroke-width:0.25;fill:none" /><line x1="20.0" y1="45.0" x2="20.0" y2="46.25" style="stroke:black;stroke-width:0.25;fill:none" /><line x1="20.0" y1="46.25" x2="20.0" y2="48.75" style="stroke:black;stroke-width:0.25;fill:none" /><line x1="20.0" y1="48.75" x2="17.5" y2="48.75" style="stroke:black;stroke-width:0.25;fill:none" /><line x1="17.5" y1="48.75" x2="17.5" y2="51.25" style="stroke:black;stroke-width:0.25;fill:none" /><line x1="17.5" y1="51.25" x2="20.0" y2="51.25" style="stroke:black;stroke-width:0.25;fill:none" /><line x1="20.0" y1="51.25" x2="20.0" y2="53.75" style="stroke:black;stroke-width:0.25;fill:none" /><line x1="20.0" y1="53.75" x2="20.0" y2="55.0" style="stroke:black;stroke-width:0.25;fill:none" /></g><g class="symbol"><line x1="0.0" y1="78.33333333333334" x2="0.0" y2="80.83333333333334" style="stroke:black;stroke-width:0.25;fill:none" /><line x1="0.0" y1="85.83333333333334" x2="0.0" y2="88.33333333333334" style="stroke:black;stroke-width:0.25;fill:none" /><line x1="0.0" y1="85.83333333333334" x2="-2.5" y2="80.83333333333334" style="stroke:black;stroke-width:0.25;fill:none" /><text x="-1.5" y="78.33333333333334" text-anchor="end" dominant-baseline="auto" font-size="3.5" style="stroke:none;stroke-width:1.0;fill:black;font-family:sans-serif">A1</text><text x="-1.5" y="88.33333333333334" text-anchor="end" dominant-baseline="auto" font-size="3.5" style="stroke:none;stroke-width:1.0;fill:black;font-family:sans-serif">A2</text><line x1="10.0" y1="78.33333333333334" x2="10.0" y2="80.83333333333334" style="stroke:black;stroke-width:0.25;fill:none" /><line x1="10.0" y1="85.83333333333334" x2="10.0" y2="88.33333333333334" style="stroke:black;stroke-width:0.25;fill:none" /><line x1="10.0" y1="85.83333333333334" x2="7.5" y2="80.83333333333334" style="stroke:black;stroke-width:0.25;fill:none" /><text x="8.5" y="78.33333333333334" text-anchor="end" dominant-baseline="auto" font-size="3.5" style="stroke:none;stroke-width:1.0;fill:black;font-family:sans-serif">13</text><text x="8.5" y="88.33333333333334" text-anchor="end" dominant-baseline="auto" font-size="3.5" style="stroke:none;stroke-width:1.0;fill:black;font-family:sans-serif">14</text><line x1="20.0" y1="78.33333333333334" x2="20.0" y2="80.83333333333334" style="stroke:black;stroke-width:0.25;fill:none" /><line x1="20.0" y1="85.83333333333334" x2="20.0" y2="88.33333333333334" style="stroke:black;stroke-width:0.25;fill:none" /><line x1="20.0" y1="85.83333333333334" x2="17.5" y2="80.83333333333334" style="stroke:black;stroke-width:0.25;fill:none" /><text x="18.5" y="78.33333333333334" text-anchor="end" dominant-baseline="auto" font-size="3.5" style="stroke:none;stroke-width:1.0;fill:black;font-family:sans-serif">21</text><text x="18.5" y="88.33333333333334" text-anchor="end" dominant-baseline="auto" font-size="3.5" style="stroke:none;stroke-width:1.0;fill:black;font-family:sans-serif">22</text><polygon points="-25.0,80.83333333333334 -15.0,80.83333333333334 -15.0,85.83333333333334 -25.0,85.83333333333334" style="stroke:black;stroke-width:0.25;fill:none" /><text x="-27.5" y="83.33333333333334" text-anchor="end" dominant-baseline="auto" font-size="5.0" style="stroke:none;stroke-width:1.0;fill:black;font-family:Times New Roman">Q1</text><line x1="-15.0" y1="83.33333333333334" x2="17.5" y2="83.33333333333334" style="stroke:black;stroke-width:0.25;fill:none;stroke-dasharray:2.0, 2.0" /></g><g class="symbol"><circle cx="0.0" cy="116.66666666666669" r="2.5" style="stroke:black;stroke-width:0.25;fill:none" /><line x1="-2.5" y1="116.66666666666669" x2="-7.5" y2="116.66666666666669" style="stroke:black;stroke-width:0.25;fill:none" /><polygon points="-42.5,114.16666666666669 -7.5,114.16666666666669 -7.5,124.16666666666669 -42.5,124.16666666666669" style="stroke:black;stroke-width:0.25;fill:none" /><line x1="-40.0" y1="114.16666666666669" x2="-40.0" y2="111.66666666666669" style="stroke:black;stroke-width:0.25;fill:none" /><text x="-41.0" y="112.91666666666669" text-anchor="end" dominant-baseline="middle" font-size="3.5" style="stroke:none;stroke-width:1.0;fill:black;font-family:sans-serif">1</text><line x1="-30.0" y1="114.16666666666669" x2="-30.0" y2="111.66666666666669" style="stroke:black;stroke-width:0.25;fill:none" /><text x="-31.0" y="112.91666666666669" text-anchor="end" dominant-baseline="middle" font-size="3.5" style="stroke:none;stroke-width:1.0;fill:black;font-family:sans-serif">2</text><line x1="-20.0" y1="114.16666666666669" x2="-20.0" y2="111.66666666666669" style="stroke:black;stroke-width:0.25;fill:none" /><text x="-21.0" y="112.91666666666669" text-anchor="end" dominant-baseline="middle" font-size="3.5" style="stroke:none;stroke-width:1.0;fill:black;font-family:sans-serif">3</text><line x1="-10.0" y1="114.16666666666669" x2="-10.0" y2="111.66666666666669" style="stroke:black;stroke-width:0.25;fill:none" /><text x="-11.0" y="112.91666666666669" text-anchor="end" dominant-baseline="middle" font-size="3.5" style="stroke:none;stroke-width:1.0;fill:black;font-family:sans-serif">4</text><text x="-45.0" y="114.16666666666669" text-anchor="end" dominant-baseline="auto" font-size="5.0" style="stroke:none;stroke-width:1.0;fill:black;font-family:Times New Roman">CT1</text></g><g class="symbol"><circle cx="0.0" cy="133.33333333333334" r="1.25" style="stroke:black;stroke-width:0.25;fill:none" /><text x="-5.0" y="133.33333333333334" text-anchor="end" dominant-baseline="auto" font-size="5.0" style="stroke:none;stroke-width:1.0;fill:black;font-family:Times New Roman">X10</text><text x="-1.5" y="133.33333333333334" text-anchor="end" dominant-baseline="auto" font-size="3.5" style="stroke:none;stroke-width:1.0;fill:black;font-family:sans-serif">U</text><circle cx="10.0" cy="133.33333333333334" r="1.25" style="stroke:black;stroke-width:0.25;fill:none" /><text x="8.5" y="133.33333333333334" text-anchor="end" dominant-baseline="auto" font-size="3.5" style="stroke:none;stroke-width:1.0;fill:black;font-family:sans-serif">V</text><circle cx="20.0" cy="133.33333333333334" r="1.25" style="stroke:black;stroke-width:0.25;fill:none" /><text x="18.5" y="133.33333333333334" text-anchor="end" dominant-baseline="auto" font-size="3.5" style="stroke:none;stroke-width:1.0;fill:black;font-family:sans-serif">W</text></g><g class="symbol"><circle cx="30.0" cy="133.33333333333334" r="1.25" style="stroke:black;stroke-width:0.25;fill:none" /><text x="35.0" y="133.33333333333334" text-anchor="start" dominant-baseline="auto" font-size="5.0" style="stroke:none;stroke-width:1.0;fill:black;font-family:Times New Roman">PE</text><text x="28.5" y="133.33333333333334" text-anchor="end" dominant-baseline="auto" font-size="3.5" style="stroke:none;stroke-width:1.0;fill:black;font-family:sans-serif">1</text></g><g class="symbol"><circle cx="10.0" cy="183.33333333333334" r="20.0" style="stroke:black;stroke-width:0.25;fill:none" /><text x="10.0" y="183.33333333333334" text-anchor="middle" dominant-baseline="auto" font-size="5.0" style="stroke:none;stroke-width:1.0;fill:black;font-family:Times New Roman">M1</text><line x1="0.0" y1="166.01282525764458" x2="0.0" y2="156.01282525764458" style="stroke:black;stroke-width:0.25;fill:none" /><line x1="10.0" y1="163.33333333333334" x2="10.0" y2="153.33333333333334" style="stroke:black;stroke-width:0.25;fill:none" /><line x1="20.0" y1="166.01282525764458" x2="20.0" y2="156.01282525764458" style="stroke:black;stroke-width:0.25;fill:none" /><line x1="30.0" y1="183.33333333333334" x2="30.0" y2="173.33333333333334" style="stroke:black;stroke-width:0.25;fill:none" /><text x="-1.5" y="156.01282525764458" text-anchor="end" dominant-baseline="auto" font-size="3.5" style="stroke:none;stroke-width:1.0;fill:black;font-family:sans-serif">U</text><text x="8.5" y="153.33333333333334" text-anchor="end" dominant-baseline="auto" font-size="3.5" style="stroke:none;stroke-width:1.0;fill:black;font-family:sans-serif">V</text><text x="18.5" y="156.01282525764458" text-anchor="end" dominant-baseline="auto" font-size="3.5" style="stroke:none;stroke-width:1.0;fill:black;font-family:sans-serif">W</text><text x="31.5" y="173.33333333333334" text-anchor="start" dominant-baseline="auto" font-size="3.5" style="stroke:none;stroke-width:1.0;fill:black;font-family:sans-serif">PE</text></g><line x1="0.0" y1="0" x2="0.0" y2="28.333333333333336" style="stroke:black;stroke-width:0.25;fill:none" /><line x1="10.0" y1="0" x2="10.0" y2="28.333333333333336" style="stroke:black;stroke-width:0.25;fill:none" /><line x1="20.0" y1="0" x2="20.0" y2="28.333333333333336" style="stroke:black;stroke-width:0.25;fill:none" /><line x1="0.0" y1="38.333333333333336" x2="0.0" y2="45.0" style="stroke:black;stroke-width:0.25;fill:none" /><line x1="10.0" y1="38.333333333333336" x2="10.0" y2="45.0" style="stroke:black;stroke-width:0.25;fill:none" /><line x1="20.0" y1="38.333333333333336" x2="20.0" y2="45.0" style="stroke:black;stroke-width:0.25;fill:none" /><line x1="0.0" y1="55.0" x2="0.0" y2="78.33333333333334" style="stroke:black;stroke-width:0.25;fill:none" /><line x1="10.0" y1="55.0" x2="10.0" y2="78.33333333333334" style="stroke:black;stroke-width:0.25;fill:none" /><line x1="20.0" y1="55.0" x2="20.0" y2="78.33333333333334" style="stroke:black;stroke-width:0.25;fill:none" /><line x1="0.0" y1="88.33333333333334" x2="0.0" y2="133.33333333333334" style="stroke:black;stroke-width:0.25;fill:none" /><line x1="10.0" y1="88.33333333333334" x2="10.0" y2="133.33333333333334" style="stroke:black;stroke-width:0.25;fill:none" /><line x1="20.0" y1="88.33333333333334" x2="20.0" y2="133.33333333333334" style="stroke:black;stroke-width:0.25;fill:none" /><line x1="30.0" y1="133.33333333333334" x2="30.0" y2="173.33333333333334" style="stroke:black;stroke-width:0.25;fill:none" /><line x1="30.0" y1="133.33333333333334" x2="30.0" y2="173.33333333333334" style="stroke:black;stroke-width:0.25;fill:none" /><line x1="0.0" y1="133.33333333333334" x2="0.0" y2="156.01282525764458" style="stroke:black;stroke-width:0.25;fill:none" /><line x1="10.0" y1="133.33333333333334" x2="10.0" y2="153.33333333333334" style="stroke:black;stroke-width:0.25;fill:none" /><line x1="20.0" y1="133.33333333333334" x2="20.0" y2="156.01282525764458" style="stroke:black;stroke-width:0.25;fill:none" /></g></svg>