<?xml version='1.0' encoding='utf-8'?>
<svg xmlns="http://www.w3.org/2000/svg" width="63.5mm" height="150.0mm" viewBox="-35.0 -25 63.5 150.0"><rect x="-35.0" y="-25" width="63.5" height="150.0" fill="white" /><g><g class="symbol"><circle cx="0.0" cy="0" r="1.25" style="stroke:black;stroke-width:0.25;fill:none" /><text x="-5.0" y="0" text-anchor="end" dominant-baseline="auto" font-size="5.0" style="stroke:none;stroke-width:1.0;fill:black;font-family:Times New Roman">X3</text><text x="-1.5" y="0.0" text-anchor="end" dominant-baseline="auto" font-size="3.5" style="stroke:none;stroke-width:1.0;fill:black;font-family:sans-serif">1</text></g><g class="symbol"><line x1="0.0" y1="45.0" x2="0.0" y2="47.5" style="stroke:black;stroke-width:0.25;fill:none" /><line x1="0.0" y1="52.5" x2="0.0" y2="55.0" style="stroke:black;stroke-width:0.25;fill:none" /><line x1="0.0" y1="47.5" x2="2.5" y2="47.5" style="stroke:black;stroke-width:0.25;fill:none" /><line x1="0.0" y1="52.5" x2="3.0590169943749475" y2="46.38196601125011" style="stroke:black;stroke-width:0.25;fill:none" /><text x="-5.0" y="50.0" text-anchor="end" dominant-baseline="auto" font-size="5.0" style="stroke:none;stroke-width:1.0;fill:black;font-family:Times New Roman">S1</text><text x="-1.5" y="45.0" text-anchor="end" dominant-baseline="auto" font-size="3.5" style="stroke:none;stroke-width:1.0;fill:black;font-family:sans-serif">1</text><text x="-1.5" y="55.0" text-anchor="end" dominant-baseline="auto" font-size="3.5" style="stroke:none;stroke-width:1.0;fill:black;font-family:sans-serif">2</text><line x1="0.0" y1="50.0" x2="-2.5" y2="50.0" style="stroke:black;stroke-width:0.25;fill:none;stroke-dasharray:2.0, 2.0" /><polygon points="-2.5,51.25 -2.5,51.25 -2.886271242968684,51.18882064536894 -3.2347315653655913,51.01127124296868 -3.511271242968684,50.73473156536559 -3.688820645368942,50.38627124296868 -3.75,50.0 -3.688820645368942,49.61372875703132 -3.511271242968684,49.26526843463441 -3.2347315653655917,48.98872875703132 -2.8862712429686845,48.81117935463106 -2.5000000000000004,48.75" style="stroke:black;stroke-width:0.25;fill:none" /></g><g class="symbol"><circle cx="0.0" cy="100.0" r="1.25" style="stroke:black;stroke-width:0.25;fill:none" /><text x="-5.0" y="100.0" text-anchor="end" dominant-baseline="auto" font-size="5.0" style="stroke:none;stroke-width:1.0;fill:black;font-family:Times New Roman">X20</text><text x="-1.5" y="100.0" text-anchor="end" dominant-baseline="auto" font-size="3.5" style="stroke:none;stroke-width:1.0;fill:black;font-family:sans-serif">1</text></g><line x1="0.0" y1="0" x2="0.0" y2="45.0" style="stroke:black;stroke-width:0.25;fill:none" /><line x1="0.0" y1="0" x2="0.0" y2="45.0" style="stroke:black;stroke-width:0.25;fill:none" /><line x1="0.0" y1="55.0" x2="0.0" y2="100.0" style="stroke:black;stroke-width:0.25;fill:none" /><line x1="0.0" y1="55.0" x2="0.0" y2="100.0" style="stroke:black;stroke-width:0.25;fill:none" /></g></svg>