<?xml version='1.0' encoding='utf-8'?>
<svg xmlns="http://www.w3.org/2000/svg" width="297mm" height="210mm" viewBox="0 0 210 297"><rect width="100%" height="100%" fill="white" /><g><g class="symbol"><circle cx="40" cy="40" r="1.25" style="stroke:black;stroke-width:0.25;fill:none" /><text x="35.0" y="40" text-anchor="end" font-size="5.0" style="stroke:none;stroke-width:1.0;fill:black;font-family:Times New Roman">X1</text><text x="38.5" y="40.0" text-anchor="end" font-size="3.5" style="stroke:none;stroke-width:1.0;fill:black;font-family:sans-serif">L1</text></g><g class="symbol"><line x1="40" y1="70.0" x2="40" y2="71.25" style="stroke:black;stroke-width:0.25;fill:none" /><line x1="40" y1="71.25" x2="40" y2="73.75" style="stroke:black;stroke-width:0.25;fill:none" /><line x1="40" y1="73.75" x2="37.5" y2="73.75" style="stroke:black;stroke-width:0.25;fill:none" /><line x1="37.5" y1="73.75" x2="37.5" y2="76.25" style="stroke:black;stroke-width:0.25;fill:none" /><line x1="37.5" y1="76.25" x2="40" y2="76.25" style="stroke:black;stroke-width:0.25;fill:none" /><line x1="40" y1="76.25" x2="40" y2="78.75" style="stroke:black;stroke-width:0.25;fill:none" /><line x1="40" y1="78.75" x2="40" y2="80.0" style="stroke:black;stroke-width:0.25;fill:none" /><text x="35.0" y="75.0" text-anchor="end" font-size="5.0" style="stroke:none;stroke-width:1.0;fill:black;font-family:Times New Roman">-F1</text><text x="38.5" y="70.0" text-anchor="end" font-size="3.5" style="stroke:none;stroke-width:1.0;fill:black;font-family:sans-serif">95</text><text x="38.5" y="80.0" text-anchor="end" font-size="3.5" style="stroke:none;stroke-width:1.0;fill:black;font-family:sans-serif">96</text></g><g class="symbol"><line x1="40" y1="105.0" x2="40" y2="107.5" style="stroke:black;stroke-width:0.25;fill:none" /><line x1="40" y1="112.5" x2="40" y2="115.0" style="stroke:black;stroke-width:0.25;fill:none" /><line x1="40" y1="107.5" x2="42.5" y2="107.5" style="stroke:black;stroke-width:0.25;fill:none" /><line x1="40" y1="112.5" x2="43.05901699437495" y2="106.3819660112501" style="stroke:black;stroke-width:0.25;fill:none" /><text x="35.0" y="110.0" text-anchor="end" font-size="5.0" style="stroke:none;stroke-width:1.0;fill:black;font-family:Times New Roman">-S1</text><text x="38.5" y="105.0" text-anchor="end" font-size="3.5" style="stroke:none;stroke-width:1.0;fill:black;font-family:sans-serif">1</text><text x="38.5" y="115.0" text-anchor="end" font-size="3.5" style="stroke:none;stroke-width:1.0;fill:black;font-family:sans-serif">2</text></g><g class="symbol"><line x1="40" y1="140.0" x2="40" y2="142.5" style="stroke:black;stroke-width:0.25;fill:none" /><line x1="40" y1="147.5" x2="40" y2="150.0" style="stroke:black;stroke-width:0.25;fill:none" /><line x1="40" y1="147.5" x2="37.5" y2="142.5" style="stroke:black;stroke-width:0.25;fill:none" /><text x="35.0" y="145.0" text-anchor="end" font-size="5.0" style="stroke:none;stroke-width:1.0;fill:black;font-family:Times New Roman">-S2</text><text x="38.5" y="140.0" text-anchor="end" font-size="3.5" style="stroke:none;stroke-width:1.0;fill:black;font-family:sans-serif">3</text><text x="38.5" y="150.0" text-anchor="end" font-size="3.5" style="stroke:none;stroke-width:1.0;fill:black;font-family:sans-serif">4</text></g><g class="symbol"><polygon points="35.0,177.5 45.0,177.5 45.0,182.5 35.0,182.5" style="stroke:black;stroke-width:0.25;fill:none" /><line x1="40" y1="177.5" x2="40" y2="175.0" style="stroke:black;stroke-width:0.25;fill:none" /><line x1="40" y1="182.5" x2="40" y2="185.0" style="stroke:black;stroke-width:0.25;fill:none" /><text x="35.0" y="180.0" text-anchor="end" font-size="5.0" style="stroke:none;stroke-width:1.0;fill:black;font-family:Times New Roman">-K1</text><text x="38.5" y="175.0" text-anchor="end" font-size="3.5" style="stroke:none;stroke-width:1.0;fill:black;font-family:sans-serif">A1</text><text x="38.5" y="185.0" text-anchor="end" font-size="3.5" style="stroke:none;stroke-width:1.0;fill:black;font-family:sans-serif">A2</text></g><g class="symbol"><circle cx="40" cy="215.0" r="1.25" style="stroke:black;stroke-width:0.25;fill:none" /><text x="35.0" y="215.0" text-anchor="end" font-size="5.0" style="stroke:none;stroke-width:1.0;fill:black;font-family:Times New Roman">X2</text><text x="38.5" y="215.0" text-anchor="end" font-size="3.5" style="stroke:none;stroke-width:1.0;fill:black;font-family:sans-serif">N</text></g><line x1="40" y1="40" x2="40" y2="70.0" style="stroke:black;stroke-width:0.25;fill:none" /><line x1="40" y1="80.0" x2="40" y2="105.0" style="stroke:black;stroke-width:0.25;fill:none" /><line x1="40" y1="115.0" x2="40" y2="140.0" style="stroke:black;stroke-width:0.25;fill:none" /><line x1="40" y1="150.0" x2="40" y2="175.0" style="stroke:black;stroke-width:0.25;fill:none" /><line x1="40" y1="185.0" x2="40" y2="215.0" style="stroke:black;stroke-width:0.25;fill:none" /><g class="symbol"><circle cx="150" cy="50" r="1.25" style="stroke:black;stroke-width:0.25;fill:none" /><text x="145.0" y="50" text-anchor="end" font-size="5.0" style="stroke:none;stroke-width:1.0;fill:black;font-family:Times New Roman">X1</text><text x="148.5" y="50.0" text-anchor="end" font-size="3.5" style="stroke:none;stroke-width:1.0;fill:black;font-family:sans-serif">1</text></g><g class="symbol"><line x1="230" y1="45.0" x2="230" y2="47.5" style="stroke:black;stroke-width:0.25;fill:none" /><line x1="230" y1="52.5" x2="230" y2="55.0" style="stroke:black;stroke-width:0.25;fill:none" /><line x1="230" y1="52.5" x2="227.5" y2="47.5" style="stroke:black;stroke-width:0.25;fill:none" /><text x="225.0" y="50" text-anchor="end" font-size="5.0" style="stroke:none;stroke-width:1.0;fill:black;font-family:Times New Roman">-K1</text><text x="228.5" y="45.0" text-anchor="end" font-size="3.5" style="stroke:none;stroke-width:1.0;fill:black;font-family:sans-serif">13</text><text x="228.5" y="55.0" text-anchor="end" font-size="3.5" style="stroke:none;stroke-width:1.0;fill:black;font-family:sans-serif">14</text></g><g class="symbol"><line x1="310" y1="45.0" x2="310" y2="47.5" style="stroke:black;stroke-width:0.25;fill:none" /><line x1="310" y1="52.5" x2="310" y2="55.0" style="stroke:black;stroke-width:0.25;fill:none" /><line x1="310" y1="47.5" x2="312.5" y2="47.5" style="stroke:black;stroke-width:0.25;fill:none" /><line x1="310" y1="52.5" x2="313.05901699437493" y2="46.38196601125011" style="stroke:black;stroke-width:0.25;fill:none" /><text x="305.0" y="50" text-anchor="end" font-size="5.0" style="stroke:none;stroke-width:1.0;fill:black;font-family:Times New Roman">-K2</text><text x="308.5" y="45.0" text-anchor="end" font-size="3.5" style="stroke:none;stroke-width:1.0;fill:black;font-family:sans-serif">21</text><text x="308.5" y="55.0" text-anchor="end" font-size="3.5" style="stroke:none;stroke-width:1.0;fill:black;font-family:sans-serif">22</text></g><g class="symbol"><line x1="390" y1="45.0" x2="390" y2="46.25" style="stroke:black;stroke-width:0.25;fill:none" /><line x1="390" y1="46.25" x2="390" y2="48.75" style="stroke:black;stroke-width:0.25;fill:none" /><line x1="390" y1="48.75" x2="387.5" y2="48.75" style="stroke:black;stroke-width:0.25;fill:none" /><line x1="387.5" y1="48.75" x2="387.5" y2="51.25" style="stroke:black;stroke-width:0.25;fill:none" /><line x1="387.5" y1="51.25" x2="390" y2="51.25" style="stroke:black;stroke-width:0.25;fill:none" /><line x1="390" y1="51.25" x2="390" y2="53.75" style="stroke:black;stroke-width:0.25;fill:none" /><line x1="390" y1="53.75" x2="390" y2="55.0" style="stroke:black;stroke-width:0.25;fill:none" /><text x="385.0" y="50" text-anchor="end" font-size="5.0" style="stroke:none;stroke-width:1.0;fill:black;font-family:Times New Roman">-F1</text><text x="388.5" y="45.0" text-anchor="end" font-size="3.5" style="stroke:none;stroke-width:1.0;fill:black;font-family:sans-serif">95</text><text x="388.5" y="55.0" text-anchor="end" font-size="3.5" style="stroke:none;stroke-width:1.0;fill:black;font-family:sans-serif">96</text></g><g class="symbol"><polygon points="145.0,117.5 155.0,117.5 155.0,142.5 145.0,142.5" style="stroke:black;stroke-width:0.25;fill:none" /><line x1="150" y1="117.5" x2="150" y2="142.5" style="stroke:black;stroke-width:0.25;fill:none" /><text x="145.0" y="130" text-anchor="end" font-size="5.0" style="stroke:none;stroke-width:1.0;fill:black;font-family:Times New Roman">-F2</text><text x="148.5" y="117.5" text-anchor="end" font-size="3.5" style="stroke:none;stroke-width:1.0;fill:black;font-family:sans-serif">1</text><text x="148.5" y="142.5" text-anchor="end" font-size="3.5" style="stroke:none;stroke-width:1.0;fill:black;font-family:sans-serif">2</text></g><g class="symbol"><polygon points="225.0,127.5 235.0,127.5 235.0,132.5 225.0,132.5" style="stroke:black;stroke-width:0.25;fill:none" /><line x1="230" y1="127.5" x2="230" y2="125.0" style="stroke:black;stroke-width:0.25;fill:none" /><line x1="230" y1="132.5" x2="230" y2="135.0" style="stroke:black;stroke-width:0.25;fill:none" /><text x="225.0" y="130" text-anchor="end" font-size="5.0" style="stroke:none;stroke-width:1.0;fill:black;font-family:Times New Roman">-K3</text><text x="228.5" y="125.0" text-anchor="end" font-size="3.5" style="stroke:none;stroke-width:1.0;fill:black;font-family:sans-serif">A1</text><text x="228.5" y="135.0" text-anchor="end" font-size="3.5" style="stroke:none;stroke-width:1.0;fill:black;font-family:sans-serif">A2</text></g><g class="symbol"><line x1="310" y1="125.0" x2="310" y2="127.5" style="stroke:black;stroke-width:0.25;fill:none" /><line x1="310" y1="132.5" x2="310" y2="135.0" style="stroke:black;stroke-width:0.25;fill:none" /><line x1="310" y1="132.5" x2="307.5" y2="127.5" style="stroke:black;stroke-width:0.25;fill:none" /><text x="305.0" y="130" text-anchor="end" font-size="5.0" style="stroke:none;stroke-width:1.0;fill:black;font-family:Times New Roman">-K4</text><text x="308.5" y="125.0" text-anchor="end" font-size="3.5" style="stroke:none;stroke-width:1.0;fill:black;font-family:sans-serif">1</text><text x="308.5" y="135.0" text-anchor="end" font-size="3.5" style="stroke:none;stroke-width:1.0;fill:black;font-family:sans-serif">2</text><line x1="320.0" y1="125.0" x2="320.0" y2="127.5" style="stroke:black;stroke-width:0.25;fill:none" /><line x1="320.0" y1="132.5" x2="320.0" y2="135.0" style="stroke:black;stroke-width:0.25;fill:none" /><line x1="320.0" y1="132.5" x2="317.5" y2="127.5" style="stroke:black;stroke-width:0.25;fill:none" /><text x="318.5" y="125.0" text-anchor="end" font-size="3.5" style="stroke:none;stroke-width:1.0;fill:black;font-family:sans-serif">3</text><text x="318.5" y="135.0" text-anchor="end" font-size="3.5" style="stroke:none;stroke-width:1.0;fill:black;font-family:sans-serif">4</text><line x1="330.0" y1="125.0" x2="330.0" y2="127.5" style="stroke:black;stroke-width:0.25;fill:none" /><line x1="330.0" y1="132.5" x2="330.0" y2="135.0" style="stroke:black;stroke-width:0.25;fill:none" /><line x1="330.0" y1="132.5" x2="327.5" y2="127.5" style="stroke:black;stroke-width:0.25;fill:none" /><text x="328.5" y="125.0" text-anchor="end" font-size="3.5" style="stroke:none;stroke-width:1.0;fill:black;font-family:sans-serif">5</text><text x="328.5" y="135.0" text-anchor="end" font-size="3.5" style="stroke:none;stroke-width:1.0;fill:black;font-family:sans-serif">6</text></g><g class="symbol"><line x1="390" y1="125.0" x2="390" y2="126.25" style="stroke:black;stroke-width:0.25;fill:none" /><line x1="390" y1="126.25" x2="390" y2="128.75" style="stroke:black;stroke-width:0.25;fill:none" /><line x1="390" y1="128.75" x2="387.5" y2="128.75" style="stroke:black;stroke-width:0.25;fill:none" /><line x1="387.5" y1="128.75" x2="387.5" y2="131.25" style="stroke:black;stroke-width:0.25;fill:none" /><line x1="387.5" y1="131.25" x2="390" y2="131.25" style="stroke:black;stroke-width:0.25;fill:none" /><line x1="390" y1="131.25" x2="390" y2="133.75" style="stroke:black;stroke-width:0.25;fill:none" /><line x1="390" y1="133.75" x2="390" y2="135.0" style="stroke:black;stroke-width:0.25;fill:none" /><text x="385.0" y="130" text-anchor="end" font-size="5.0" style="stroke:none;stroke-width:1.0;fill:black;font-family:Times New Roman">-F3</text><text x="388.5" y="125.0" text-anchor="end" font-size="3.5" style="stroke:none;stroke-width:1.0;fill:black;font-family:sans-serif">1</text><text x="388.5" y="135.0" text-anchor="end" font-size="3.5" style="stroke:none;stroke-width:1.0;fill:black;font-family:sans-serif">2</text><line x1="400.0" y1="125.0" x2="400.0" y2="126.25" style="stroke:black;stroke-width:0.25;fill:none" /><line x1="400.0" y1="126.25" x2="400.0" y2="128.75" style="stroke:black;stroke-width:0.25;fill:none" /><line x1="400.0" y1="128.75" x2="397.5" y2="128.75" style="stroke:black;stroke-width:0.25;fill:none" /><line x1="397.5" y1="128.75" x2="397.5" y2="131.25" style="stroke:black;stroke-width:0.25;fill:none" /><line x1="397.5" y1="131.25" x2="400.0" y2="131.25" style="stroke:black;stroke-width:0.25;fill:none" /><line x1="400.0" y1="131.25" x2="400.0" y2="133.75" style="stroke:black;stroke-width:0.25;fill:none" /><line x1="400.0" y1="133.75" x2="400.0" y2="135.0" style="stroke:black;stroke-width:0.25;fill:none" /><text x="398.5" y="125.0" text-anchor="end" font-size="3.5" style="stroke:none;stroke-width:1.0;fill:black;font-family:sans-serif">3</text><text x="398.5" y="135.0" text-anchor="end" font-size="3.5" style="stroke:none;stroke-width:1.0;fill:black;font-family:sans-serif">4</text><line x1="410.0" y1="125.0" x2="410.0" y2="126.25" style="stroke:black;stroke-width:0.25;fill:none" /><line x1="410.0" y1="126.25" x2="410.0" y2="128.75" style="stroke:black;stroke-width:0.25;fill:none" /><line x1="410.0" y1="128.75" x2="407.5" y2="128.75" style="stroke:black;stroke-width:0.25;fill:none" /><line x1="407.5" y1="128.75" x2="407.5" y2="131.25" style="stroke:black;stroke-width:0.25;fill:none" /><line x1="407.5" y1="131.25" x2="410.0" y2="131.25" style="stroke:black;stroke-width:0.25;fill:none" /><line x1="410.0" y1="131.25" x2="410.0" y2="133.75" style="stroke:black;stroke-width:0.25;fill:none" /><line x1="410.0" y1="133.75" x2="410.0" y2="135.0" style="stroke:black;stroke-width:0.25;fill:none" /><text x="408.5" y="125.0" text-anchor="end" font-size="3.5" style="stroke:none;stroke-width:1.0;fill:black;font-family:sans-serif">5</text><text x="408.5" y="135.0" text-anchor="end" font-size="3.5" style="stroke:none;stroke-width:1.0;fill:black;font-family:sans-serif">6</text></g></g></svg>