<?xml version='1.0' encoding='utf-8'?>
<svg xmlns="http://www.w3.org/2000/svg" width="100mm" height="297mm" viewBox="0 0 100.0 297.0"><rect width="100%" height="100%" fill="white" /><g><g class="symbol"><circle cx="50" cy="50" r="1.25" style="stroke:black;stroke-width:0.25;fill:none" /><text x="45.0" y="50" text-anchor="end" dominant-baseline="auto" font-size="5.0" style="stroke:none;stroke-width:1.0;fill:black;font-family:Times New Roman">X10</text><text x="48.5" y="50.0" text-anchor="end" dominant-baseline="auto" font-size="3.5" style="stroke:none;stroke-width:1.0;fill:black;font-family:sans-serif">1</text></g><g class="symbol"><line x1="50" y1="95.0" x2="50" y2="97.5" style="stroke:black;stroke-width:0.25;fill:none" /><line x1="50" y1="102.5" x2="50" y2="105.0" style="stroke:black;stroke-width:0.25;fill:none" /><line x1="50" y1="97.5" x2="52.5" y2="97.5" style="stroke:black;stroke-width:0.25;fill:none" /><line x1="50" y1="102.5" x2="53.05901699437495" y2="96.3819660112501" style="stroke:black;stroke-width:0.25;fill:none" /><text x="45.0" y="100.0" text-anchor="end" dominant-baseline="auto" font-size="5.0" style="stroke:none;stroke-width:1.0;fill:black;font-family:Times New Roman">S0</text><text x="48.5" y="95.0" text-anchor="end" dominant-baseline="auto" font-size="3.5" style="stroke:none;stroke-width:1.0;fill:black;font-family:sans-serif">1</text><text x="48.5" y="105.0" text-anchor="end" dominant-baseline="auto" font-size="3.5" style="stroke:none;stroke-width:1.0;fill:black;font-family:sans-serif">2</text><line x1="50" y1="100.0" x2="47.5" y2="100.0" style="stroke:black;stroke-width:0.25;fill:none;stroke-dasharray:2, 2" /><polygon points="47.5,101.25 47.5,101.25 47.11372875703132,101.18882064536893 46.76526843463441,101.01127124296869 46.48872875703132,100.73473156536559 46.31117935463106,100.38627124296869 46.25,100.0 46.31117935463106,99.61372875703131 46.48872875703132,99.26526843463441 46.76526843463441,98.98872875703131 47.11372875703132,98.81117935463107 47.5,98.75" style="stroke:black;stroke-width:0.25;fill:none" /></g><g class="symbol"><line x1="50" y1="145.0" x2="50" y2="147.5" style="stroke:black;stroke-width:0.25;fill:none" /><line x1="50" y1="152.5" x2="50" y2="155.0" style="stroke:black;stroke-width:0.25;fill:none" /><line x1="50" y1="152.5" x2="47.5" y2="147.5" style="stroke:black;stroke-width:0.25;fill:none" /><text x="45.0" y="150.0" text-anchor="end" dominant-baseline="auto" font-size="5.0" style="stroke:none;stroke-width:1.0;fill:black;font-family:Times New Roman">S1</text><text x="48.5" y="145.0" text-anchor="end" dominant-baseline="auto" font-size="3.5" style="stroke:none;stroke-width:1.0;fill:black;font-family:sans-serif">13</text><text x="48.5" y="155.0" text-anchor="end" dominant-baseline="auto" font-size="3.5" style="stroke:none;stroke-width:1.0;fill:black;font-family:sans-serif">14</text></g><g class="symbol"><line x1="50.0" y1="197.5" x2="50.0" y2="195.0" style="stroke:black;stroke-width:0.25;fill:none" /><line x1="50.0" y1="205.0" x2="50.0" y2="202.5" style="stroke:black;stroke-width:0.25;fill:none" /><line x1="55.0" y1="205.0" x2="55.0" y2="202.5" style="stroke:black;stroke-width:0.25;fill:none" /><line x1="55.0" y1="202.5" x2="52.5" y2="202.5" style="stroke:black;stroke-width:0.25;fill:none" /><line x1="50.0" y1="197.5" x2="53.05901699437495" y2="203.6180339887499" style="stroke:black;stroke-width:0.25;fill:none" /><text x="47.5" y="200.0" text-anchor="end" dominant-baseline="auto" font-size="5.0" style="stroke:none;stroke-width:1.0;fill:black;font-family:Times New Roman">S2</text><text x="48.0" y="195.0" text-anchor="end" dominant-baseline="auto" font-size="3.5" style="stroke:none;stroke-width:1.0;fill:black;font-family:sans-serif">11</text><text x="57.0" y="205.0" text-anchor="start" dominant-baseline="auto" font-size="3.5" style="stroke:none;stroke-width:1.0;fill:black;font-family:sans-serif">12</text><text x="48.0" y="205.0" text-anchor="end" dominant-baseline="auto" font-size="3.5" style="stroke:none;stroke-width:1.0;fill:black;font-family:sans-serif">14</text></g><g class="symbol"><polygon points="50.0,247.5 60.0,247.5 60.0,252.5 50.0,252.5" style="stroke:black;stroke-width:0.25;fill:none" /><line x1="55.0" y1="247.5" x2="55.0" y2="245.0" style="stroke:black;stroke-width:0.25;fill:none" /><line x1="55.0" y1="252.5" x2="55.0" y2="255.0" style="stroke:black;stroke-width:0.25;fill:none" /><text x="47.5" y="250.0" text-anchor="end" dominant-baseline="auto" font-size="5.0" style="stroke:none;stroke-width:1.0;fill:black;font-family:Times New Roman">K1</text><text x="53.5" y="245.0" text-anchor="end" dominant-baseline="auto" font-size="3.5" style="stroke:none;stroke-width:1.0;fill:black;font-family:sans-serif">A1</text><text x="53.5" y="255.0" text-anchor="end" dominant-baseline="auto" font-size="3.5" style="stroke:none;stroke-width:1.0;fill:black;font-family:sans-serif">A2</text></g><g class="symbol"><circle cx="55.0" cy="300.0" r="1.25" style="stroke:black;stroke-width:0.25;fill:none" /><text x="50.0" y="300.0" text-anchor="end" dominant-baseline="auto" font-size="5.0" style="stroke:none;stroke-width:1.0;fill:black;font-family:Times New Roman">X11</text><text x="53.5" y="300.0" text-anchor="end" dominant-baseline="auto" font-size="3.5" style="stroke:none;stroke-width:1.0;fill:black;font-family:sans-serif">1</text></g><g class="symbol"><circle cx="50" cy="220.0" r="1.25" style="stroke:black;stroke-width:0.25;fill:none" /><text x="45.0" y="220.0" text-anchor="end" dominant-baseline="auto" font-size="5.0" style="stroke:none;stroke-width:1.0;fill:black;font-family:Times New Roman">X12</text><text x="48.5" y="220.0" text-anchor="end" dominant-baseline="auto" font-size="3.5" style="stroke:none;stroke-width:1.0;fill:black;font-family:sans-serif">1</text></g><line x1="50" y1="50" x2="50" y2="95.0" style="stroke:black;stroke-width:0.25;fill:none" /><line x1="50" y1="105.0" x2="50" y2="145.0" style="stroke:black;stroke-width:0.25;fill:none" /><line x1="50" y1="155.0" x2="50.0" y2="195.0" style="stroke:black;stroke-width:0.25;fill:none" /><line x1="55.0" y1="205.0" x2="55.0" y2="245.0" style="stroke:black;stroke-width:0.25;fill:none" /><line x1="55.0" y1="255.0" x2="55.0" y2="300.0" style="stroke:black;stroke-width:0.25;fill:none" /><line x1="50.0" y1="205.0" x2="50" y2="220.0" style="stroke:black;stroke-width:0.25;fill:none" /></g></svg>