<?xml version='1.0' encoding='utf-8'?>
<svg xmlns="http://www.w3.org/2000/svg" width="450mm" height="400mm" viewBox="0 0 450.0 400.0"><rect width="100%" height="100%" fill="white" /><g><g class="symbol"><circle cx="50" cy="50" r="1.25" style="stroke:black;stroke-width:0.25;fill:none" /><text x="45.0" y="50" text-anchor="end" font-size="5.0" style="stroke:none;stroke-width:1.0;fill:black;font-family:Times New Roman">X1</text><text x="48.5" y="50.0" text-anchor="end" font-size="3.5" style="stroke:none;stroke-width:1.0;fill:black;font-family:sans-serif">1</text><circle cx="60.0" cy="50" r="1.25" style="stroke:black;stroke-width:0.25;fill:none" /><text x="58.5" y="50.0" text-anchor="end" font-size="3.5" style="stroke:none;stroke-width:1.0;fill:black;font-family:sans-serif">3</text><circle cx="70.0" cy="50" r="1.25" style="stroke:black;stroke-width:0.25;fill:none" /><text x="68.5" y="50.0" text-anchor="end" font-size="3.5" style="stroke:none;stroke-width:1.0;fill:black;font-family:sans-serif">5</text></g><g class="symbol"><line x1="50" y1="85.0" x2="50" y2="87.5" style="stroke:black;stroke-width:0.25;fill:none" /><line x1="50" y1="92.5" x2="50" y2="95.0" style="stroke:black;stroke-width:0.25;fill:none" /><line x1="50" y1="92.5" x2="47.5" y2="87.5" style="stroke:black;stroke-width:0.25;fill:none" /><text x="45.0" y="90.0" text-anchor="end" font-size="5.0" style="stroke:none;stroke-width:1.0;fill:black;font-family:Times New Roman">-K1</text><text x="48.5" y="85.0" text-anchor="end" font-size="3.5" style="stroke:none;stroke-width:1.0;fill:black;font-family:sans-serif">1</text><text x="48.5" y="95.0" text-anchor="end" font-size="3.5" style="stroke:none;stroke-width:1.0;fill:black;font-family:sans-serif">2</text><line x1="60.0" y1="85.0" x2="60.0" y2="87.5" style="stroke:black;stroke-width:0.25;fill:none" /><line x1="60.0" y1="92.5" x2="60.0" y2="95.0" style="stroke:black;stroke-width:0.25;fill:none" /><line x1="60.0" y1="92.5" x2="57.5" y2="87.5" style="stroke:black;stroke-width:0.25;fill:none" /><text x="58.5" y="85.0" text-anchor="end" font-size="3.5" style="stroke:none;stroke-width:1.0;fill:black;font-family:sans-serif">3</text><text x="58.5" y="95.0" text-anchor="end" font-size="3.5" style="stroke:none;stroke-width:1.0;fill:black;font-family:sans-serif">4</text><line x1="70.0" y1="85.0" x2="70.0" y2="87.5" style="stroke:black;stroke-width:0.25;fill:none" /><line x1="70.0" y1="92.5" x2="70.0" y2="95.0" style="stroke:black;stroke-width:0.25;fill:none" /><line x1="70.0" y1="92.5" x2="67.5" y2="87.5" style="stroke:black;stroke-width:0.25;fill:none" /><text x="68.5" y="85.0" text-anchor="end" font-size="3.5" style="stroke:none;stroke-width:1.0;fill:black;font-family:sans-serif">5</text><text x="68.5" y="95.0" text-anchor="end" font-size="3.5" style="stroke:none;stroke-width:1.0;fill:black;font-family:sans-serif">6</text></g><g class="symbol"><line x1="50" y1="125.0" x2="50" y2="127.5" style="stroke:black;stroke-width:0.25;fill:none" /><line x1="50" y1="132.5" x2="50" y2="135.0" style="stroke:black;stroke-width:0.25;fill:none" /><line x1="50" y1="127.5" x2="52.5" y2="127.5" style="stroke:black;stroke-width:0.25;fill:none" /><line x1="50" y1="132.5" x2="53.05901699437495" y2="126.3819660112501" style="stroke:black;stroke-width:0.25;fill:none" /><text x="45.0" y="130.0" text-anchor="end" font-size="5.0" style="stroke:none;stroke-width:1.0;fill:black;font-family:Times New Roman">-K2</text><text x="48.5" y="125.0" text-anchor="end" font-size="3.5" style="stroke:none;stroke-width:1.0;fill:black;font-family:sans-serif">11</text><text x="48.5" y="135.0" text-anchor="end" font-size="3.5" style="stroke:none;stroke-width:1.0;fill:black;font-family:sans-serif">12</text><line x1="60.0" y1="125.0" x2="60.0" y2="127.5" style="stroke:black;stroke-width:0.25;fill:none" /><line x1="60.0" y1="132.5" x2="60.0" y2="135.0" style="stroke:black;stroke-width:0.25;fill:none" /><line x1="60.0" y1="127.5" x2="62.5" y2="127.5" style="stroke:black;stroke-width:0.25;fill:none" /><line x1="60.0" y1="132.5" x2="63.05901699437494" y2="126.3819660112501" style="stroke:black;stroke-width:0.25;fill:none" /><text x="58.5" y="125.0" text-anchor="end" font-size="3.5" style="stroke:none;stroke-width:1.0;fill:black;font-family:sans-serif">13</text><text x="58.5" y="135.0" text-anchor="end" font-size="3.5" style="stroke:none;stroke-width:1.0;fill:black;font-family:sans-serif">14</text><line x1="70.0" y1="125.0" x2="70.0" y2="127.5" style="stroke:black;stroke-width:0.25;fill:none" /><line x1="70.0" y1="132.5" x2="70.0" y2="135.0" style="stroke:black;stroke-width:0.25;fill:none" /><line x1="70.0" y1="127.5" x2="72.5" y2="127.5" style="stroke:black;stroke-width:0.25;fill:none" /><line x1="70.0" y1="132.5" x2="73.05901699437494" y2="126.3819660112501" style="stroke:black;stroke-width:0.25;fill:none" /><text x="68.5" y="125.0" text-anchor="end" font-size="3.5" style="stroke:none;stroke-width:1.0;fill:black;font-family:sans-serif">15</text><text x="68.5" y="135.0" text-anchor="end" font-size="3.5" style="stroke:none;stroke-width:1.0;fill:black;font-family:sans-serif">16</text></g><g class="symbol"><line x1="50" y1="165.0" x2="50" y2="166.25" style="stroke:black;stroke-width:0.25;fill:none" /><line x1="50" y1="166.25" x2="50" y2="168.75" style="stroke:black;stroke-width:0.25;fill:none" /><line x1="50" y1="168.75" x2="47.5" y2="168.75" style="stroke:black;stroke-width:0.25;fill:none" /><line x1="47.5" y1="168.75" x2="47.5" y2="171.25" style="stroke:black;stroke-width:0.25;fill:none" /><line x1="47.5" y1="171.25" x2="50" y2="171.25" style="stroke:black;stroke-width:0.25;fill:none" /><line x1="50" y1="171.25" x2="50" y2="173.75" style="stroke:black;stroke-width:0.25;fill:none" /><line x1="50" y1="173.75" x2="50" y2="175.0" style="stroke:black;stroke-width:0.25;fill:none" /><text x="45.0" y="170.0" text-anchor="end" font-size="5.0" style="stroke:none;stroke-width:1.0;fill:black;font-family:Times New Roman">-F1</text><text x="48.5" y="165.0" text-anchor="end" font-size="3.5" style="stroke:none;stroke-width:1.0;fill:black;font-family:sans-serif">1</text><text x="48.5" y="175.0" text-anchor="end" font-size="3.5" style="stroke:none;stroke-width:1.0;fill:black;font-family:sans-serif">2</text><line x1="60.0" y1="165.0" x2="60.0" y2="166.25" style="stroke:black;stroke-width:0.25;fill:none" /><line x1="60.0" y1="166.25" x2="60.0" y2="168.75" style="stroke:black;stroke-width:0.25;fill:none" /><line x1="60.0" y1="168.75" x2="57.5" y2="168.75" style="stroke:black;stroke-width:0.25;fill:none" /><line x1="57.5" y1="168.75" x2="57.5" y2="171.25" style="stroke:black;stroke-width:0.25;fill:none" /><line x1="57.5" y1="171.25" x2="60.0" y2="171.25" style="stroke:black;stroke-width:0.25;fill:none" /><line x1="60.0" y1="171.25" x2="60.0" y2="173.75" style="stroke:black;stroke-width:0.25;fill:none" /><line x1="60.0" y1="173.75" x2="60.0" y2="175.0" style="stroke:black;stroke-width:0.25;fill:none" /><text x="58.5" y="165.0" text-anchor="end" font-size="3.5" style="stroke:none;stroke-width:1.0;fill:black;font-family:sans-serif">3</text><text x="58.5" y="175.0" text-anchor="end" font-size="3.5" style="stroke:none;stroke-width:1.0;fill:black;font-family:sans-serif">4</text><line x1="70.0" y1="165.0" x2="70.0" y2="166.25" style="stroke:black;stroke-width:0.25;fill:none" /><line x1="70.0" y1="166.25" x2="70.0" y2="168.75" style="stroke:black;stroke-width:0.25;fill:none" /><line x1="70.0" y1="168.75" x2="67.5" y2="168.75" style="stroke:black;stroke-width:0.25;fill:none" /><line x1="67.5" y1="168.75" x2="67.5" y2="171.25" style="stroke:black;stroke-width:0.25;fill:none" /><line x1="67.5" y1="171.25" x2="70.0" y2="171.25" style="stroke:black;stroke-width:0.25;fill:none" /><line x1="70.0" y1="171.25" x2="70.0" y2="173.75" style="stroke:black;stroke-width:0.25;fill:none" /><line x1="70.0" y1="173.75" x2="70.0" y2="175.0" style="stroke:black;stroke-width:0.25;fill:none" /><text x="68.5" y="165.0" text-anchor="end" font-size="3.5" style="stroke:none;stroke-width:1.0;fill:black;font-family:sans-serif">5</text><text x="68.5" y="175.0" text-anchor="end" font-size="3.5" style="stroke:none;stroke-width:1.0;fill:black;font-family:sans-serif">6</text></g><g class="symbol"><circle cx="50" cy="210.0" r="1.25" style="stroke:black;stroke-width:0.25;fill:none" /><text x="45.0" y="210.0" text-anchor="end" font-size="5.0" style="stroke:none;stroke-width:1.0;fill:black;font-family:Times New Roman">X2</text><text x="48.5" y="210.0" text-anchor="end" font-size="3.5" style="stroke:none;stroke-width:1.0;fill:black;font-family:sans-serif">U</text><circle cx="60.0" cy="210.0" r="1.25" style="stroke:black;stroke-width:0.25;fill:none" /><text x="58.5" y="210.0" text-anchor="end" font-size="3.5" style="stroke:none;stroke-width:1.0;fill:black;font-family:sans-serif">W</text><circle cx="70.0" cy="210.0" r="1.25" style="stroke:black;stroke-width:0.25;fill:none" /><text x="68.5" y="210.0" text-anchor="end" font-size="3.5" style="stroke:none;stroke-width:1.0;fill:black;font-family:sans-serif">Y</text></g><line x1="50" y1="50" x2="50" y2="85.0" style="stroke:black;stroke-width:0.25;fill:none" /><line x1="60.0" y1="50" x2="60.0" y2="85.0" style="stroke:black;stroke-width:0.25;fill:none" /><line x1="70.0" y1="50" x2="70.0" y2="85.0" style="stroke:black;stroke-width:0.25;fill:none" /><line x1="50" y1="95.0" x2="50" y2="125.0" style="stroke:black;stroke-width:0.25;fill:none" /><line x1="60.0" y1="95.0" x2="60.0" y2="125.0" style="stroke:black;stroke-width:0.25;fill:none" /><line x1="70.0" y1="95.0" x2="70.0" y2="125.0" style="stroke:black;stroke-width:0.25;fill:none" /><line x1="50" y1="135.0" x2="50" y2="165.0" style="stroke:black;stroke-width:0.25;fill:none" /><line x1="60.0" y1="135.0" x2="60.0" y2="165.0" style="stroke:black;stroke-width:0.25;fill:none" /><line x1="70.0" y1="135.0" x2="70.0" y2="165.0" style="stroke:black;stroke-width:0.25;fill:none" /><line x1="50" y1="175.0" x2="50" y2="210.0" style="stroke:black;stroke-width:0.25;fill:none" /><line x1="60.0" y1="175.0" x2="60.0" y2="210.0" style="stroke:black;stroke-width:0.25;fill:none" /><line x1="70.0" y1="175.0" x2="70.0" y2="210.0" style="stroke:black;stroke-width:0.25;fill:none" /><g class="symbol"><circle cx="120.0" cy="50" r="1.25" style="stroke:black;stroke-width:0.25;fill:none" /><text x="115.0" y="50" text-anchor="end" font-size="5.0" style="stroke:none;stroke-width:1.0;fill:black;font-family:Times New Roman">X3</text><text x="118.5" y="50.0" text-anchor="end" font-size="3.5" style="stroke:none;stroke-width:1.0;fill:black;font-family:sans-serif">L1</text><circle cx="130.0" cy="50" r="1.25" style="stroke:black;stroke-width:0.25;fill:none" /><text x="128.5" y="50.0" text-anchor="end" font-size="3.5" style="stroke:none;stroke-width:1.0;fill:black;font-family:sans-serif">L3</text><circle cx="140.0" cy="50" r="1.25" style="stroke:black;stroke-width:0.25;fill:none" /><text x="138.5" y="50.0" text-anchor="end" font-size="3.5" style="stroke:none;stroke-width:1.0;fill:black;font-family:sans-serif">PE</text></g><g class="symbol"><line x1="120.0" y1="85.0" x2="120.0" y2="87.5" style="stroke:black;stroke-width:0.25;fill:none" /><line x1="120.0" y1="92.5" x2="120.0" y2="95.0" style="stroke:black;stroke-width:0.25;fill:none" /><line x1="120.0" y1="92.5" x2="117.5" y2="87.5" style="stroke:black;stroke-width:0.25;fill:none" /><text x="115.0" y="90.0" text-anchor="end" font-size="5.0" style="stroke:none;stroke-width:1.0;fill:black;font-family:Times New Roman">-K3</text><text x="118.5" y="85.0" text-anchor="end" font-size="3.5" style="stroke:none;stroke-width:1.0;fill:black;font-family:sans-serif">1</text><text x="118.5" y="95.0" text-anchor="end" font-size="3.5" style="stroke:none;stroke-width:1.0;fill:black;font-family:sans-serif">2</text><line x1="130.0" y1="85.0" x2="130.0" y2="87.5" style="stroke:black;stroke-width:0.25;fill:none" /><line x1="130.0" y1="92.5" x2="130.0" y2="95.0" style="stroke:black;stroke-width:0.25;fill:none" /><line x1="130.0" y1="92.5" x2="127.5" y2="87.5" style="stroke:black;stroke-width:0.25;fill:none" /><text x="128.5" y="85.0" text-anchor="end" font-size="3.5" style="stroke:none;stroke-width:1.0;fill:black;font-family:sans-serif">3</text><text x="128.5" y="95.0" text-anchor="end" font-size="3.5" style="stroke:none;stroke-width:1.0;fill:black;font-family:sans-serif">4</text><line x1="140.0" y1="85.0" x2="140.0" y2="87.5" style="stroke:black;stroke-width:0.25;fill:none" /><line x1="140.0" y1="92.5" x2="140.0" y2="95.0" style="stroke:black;stroke-width:0.25;fill:none" /><line x1="140.0" y1="92.5" x2="137.5" y2="87.5" style="stroke:black;stroke-width:0.25;fill:none" /><text x="138.5" y="85.0" text-anchor="end" font-size="3.5" style="stroke:none;stroke-width:1.0;fill:black;font-family:sans-serif">5</text><text x="138.5" y="95.0" text-anchor="end" font-size="3.5" style="stroke:none;stroke-width:1.0;fill:black;font-family:sans-serif">6</text></g><g class="symbol"><line x1="120.0" y1="125.0" x2="120.0" y2="127.5" style="stroke:black;stroke-width:0.25;fill:none" /><line x1="120.0" y1="132.5" x2="120.0" y2="135.0" style="stroke:black;stroke-width:0.25;fill:none" /><line x1="120.0" y1="127.5" x2="122.5" y2="127.5" style="stroke:black;stroke-width:0.25;fill:none" /><line x1="120.0" y1="132.5" x2="123.05901699437494" y2="126.3819660112501" style="stroke:black;stroke-width:0.25;fill:none" /><text x="115.0" y="130.0" text-anchor="end" font-size="5.0" style="stroke:none;stroke-width:1.0;fill:black;font-family:Times New Roman">-K4</text><text x="118.5" y="125.0" text-anchor="end" font-size="3.5" style="stroke:none;stroke-width:1.0;fill:black;font-family:sans-serif">11</text><text x="118.5" y="135.0" text-anchor="end" font-size="3.5" style="stroke:none;stroke-width:1.0;fill:black;font-family:sans-serif">12</text><line x1="130.0" y1="125.0" x2="130.0" y2="127.5" style="stroke:black;stroke-width:0.25;fill:none" /><line x1="130.0" y1="132.5" x2="130.0" y2="135.0" style="stroke:black;stroke-width:0.25;fill:none" /><line x1="130.0" y1="127.5" x2="132.5" y2="127.5" style="stroke:black;stroke-width:0.25;fill:none" /><line x1="130.0" y1="132.5" x2="133.05901699437496" y2="126.3819660112501" style="stroke:black;stroke-width:0.25;fill:none" /><text x="128.5" y="125.0" text-anchor="end" font-size="3.5" style="stroke:none;stroke-width:1.0;fill:black;font-family:sans-serif">13</text><text x="128.5" y="135.0" text-anchor="end" font-size="3.5" style="stroke:none;stroke-width:1.0;fill:black;font-family:sans-serif">14</text><line x1="140.0" y1="125.0" x2="140.0" y2="127.5" style="stroke:black;stroke-width:0.25;fill:none" /><line x1="140.0" y1="132.5" x2="140.0" y2="135.0" style="stroke:black;stroke-width:0.25;fill:none" /><line x1="140.0" y1="127.5" x2="142.5" y2="127.5" style="stroke:black;stroke-width:0.25;fill:none" /><line x1="140.0" y1="132.5" x2="143.05901699437496" y2="126.3819660112501" style="stroke:black;stroke-width:0.25;fill:none" /><text x="138.5" y="125.0" text-anchor="end" font-size="3.5" style="stroke:none;stroke-width:1.0;fill:black;font-family:sans-serif">15</text><text x="138.5" y="135.0" text-anchor="end" font-size="3.5" style="stroke:none;stroke-width:1.0;fill:black;font-family:sans-serif">16</text></g><g class="symbol"><line x1="120.0" y1="165.0" x2="120.0" y2="166.25" style="stroke:black;stroke-width:0.25;fill:none" /><line x1="120.0" y1="166.25" x2="120.0" y2="168.75" style="stroke:black;stroke-width:0.25;fill:none" /><line x1="120.0" y1="168.75" x2="117.5" y2="168.75" style="stroke:black;stroke-width:0.25;fill:none" /><line x1="117.5" y1="168.75" x2="117.5" y2="171.25" style="stroke:black;stroke-width:0.25;fill:none" /><line x1="117.5" y1="171.25" x2="120.0" y2="171.25" style="stroke:black;stroke-width:0.25;fill:none" /><line x1="120.0" y1="171.25" x2="120.0" y2="173.75" style="stroke:black;stroke-width:0.25;fill:none" /><line x1="120.0" y1="173.75" x2="120.0" y2="175.0" style="stroke:black;stroke-width:0.25;fill:none" /><text x="115.0" y="170.0" text-anchor="end" font-size="5.0" style="stroke:none;stroke-width:1.0;fill:black;font-family:Times New Roman">-F2</text><text x="118.5" y="165.0" text-anchor="end" font-size="3.5" style="stroke:none;stroke-width:1.0;fill:black;font-family:sans-serif">1</text><text x="118.5" y="175.0" text-anchor="end" font-size="3.5" style="stroke:none;stroke-width:1.0;fill:black;font-family:sans-serif">2</text><line x1="130.0" y1="165.0" x2="130.0" y2="166.25" style="stroke:black;stroke-width:0.25;fill:none" /><line x1="130.0" y1="166.25" x2="130.0" y2="168.75" style="stroke:black;stroke-width:0.25;fill:none" /><line x1="130.0" y1="168.75" x2="127.5" y2="168.75" style="stroke:black;stroke-width:0.25;fill:none" /><line x1="127.5" y1="168.75" x2="127.5" y2="171.25" style="stroke:black;stroke-width:0.25;fill:none" /><line x1="127.5" y1="171.25" x2="130.0" y2="171.25" style="stroke:black;stroke-width:0.25;fill:none" /><line x1="130.0" y1="171.25" x2="130.0" y2="173.75" style="stroke:black;stroke-width:0.25;fill:none" /><line x1="130.0" y1="173.75" x2="130.0" y2="175.0" style="stroke:black;stroke-width:0.25;fill:none" /><text x="128.5" y="165.0" text-anchor="end" font-size="3.5" style="stroke:none;stroke-width:1.0;fill:black;font-family:sans-serif">3</text><text x="128.5" y="175.0" text-anchor="end" font-size="3.5" style="stroke:none;stroke-width:1.0;fill:black;font-family:sans-serif">4</text><line x1="140.0" y1="165.0" x2="140.0" y2="166.25" style="stroke:black;stroke-width:0.25;fill:none" /><line x1="140.0" y1="166.25" x2="140.0" y2="168.75" style="stroke:black;stroke-width:0.25;fill:none" /><line x1="140.0" y1="168.75" x2="137.5" y2="168.75" style="stroke:black;stroke-width:0.25;fill:none" /><line x1="137.5" y1="168.75" x2="137.5" y2="171.25" style="stroke:black;stroke-width:0.25;fill:none" /><line x1="137.5" y1="171.25" x2="140.0" y2="171.25" style="stroke:black;stroke-width:0.25;fill:none" /><line x1="140.0" y1="171.25" x2="140.0" y2="173.75" style="stroke:black;stroke-width:0.25;fill:none" /><line x1="140.0" y1="173.75" x2="140.0" y2="175.0" style="stroke:black;stroke-width:0.25;fill:none" /><text x="138.5" y="165.0" text-anchor="end" font-size="3.5" style="stroke:none;stroke-width:1.0;fill:black;font-family:sans-serif">5</text><text x="138.5" y="175.0" text-anchor="end" font-size="3.5" style="stroke:none;stroke-width:1.0;fill:black;font-family:sans-serif">6</text></g><g class="symbol"><circle cx="120.0" cy="210.0" r="1.25" style="stroke:black;stroke-width:0.25;fill:none" /><text x="115.0" y="210.0" text-anchor="end" font-size="5.0" style="stroke:none;stroke-width:1.0;fill:black;font-family:Times New Roman">X4</text><text x="118.5" y="210.0" text-anchor="end" font-size="3.5" style="stroke:none;stroke-width:1.0;fill:black;font-family:sans-serif">U</text><circle cx="130.0" cy="210.0" r="1.25" style="stroke:black;stroke-width:0.25;fill:none" /><text x="128.5" y="210.0" text-anchor="end" font-size="3.5" style="stroke:none;stroke-width:1.0;fill:black;font-family:sans-serif">W</text><circle cx="140.0" cy="210.0" r="1.25" style="stroke:black;stroke-width:0.25;fill:none" /><text x="138.5" y="210.0" text-anchor="end" font-size="3.5" style="stroke:none;stroke-width:1.0;fill:black;font-family:sans-serif">Y</text></g><line x1="120.0" y1="50" x2="120.0" y2="85.0" style="stroke:black;stroke-width:0.25;fill:none" /><line x1="130.0" y1="50" x2="130.0" y2="85.0" style="stroke:black;stroke-width:0.25;fill:none" /><line x1="140.0" y1="50" x2="140.0" y2="85.0" style="stroke:black;stroke-width:0.25;fill:none" /><line x1="120.0" y1="95.0" x2="120.0" y2="125.0" style="stroke:black;stroke-width:0.25;fill:none" /><line x1="130.0" y1="95.0" x2="130.0" y2="125.0" style="stroke:black;stroke-width:0.25;fill:none" /><line x1="140.0" y1="95.0" x2="140.0" y2="125.0" style="stroke:black;stroke-width:0.25;fill:none" /><line x1="120.0" y1="135.0" x2="120.0" y2="165.0" style="stroke:black;stroke-width:0.25;fill:none" /><line x1="130.0" y1="135.0" x2="130.0" y2="165.0" style="stroke:black;stroke-width:0.25;fill:none" /><line x1="140.0" y1="135.0" x2="140.0" y2="165.0" style="stroke:black;stroke-width:0.25;fill:none" /><line x1="120.0" y1="175.0" x2="120.0" y2="210.0" style="stroke:black;stroke-width:0.25;fill:none" /><line x1="130.0" y1="175.0" x2="130.0" y2="210.0" style="stroke:black;stroke-width:0.25;fill:none" /><line x1="140.0" y1="175.0" x2="140.0" y2="210.0" style="stroke:black;stroke-width:0.25;fill:none" /><g class="symbol"><circle cx="190.0" cy="50" r="1.25" style="stroke:black;stroke-width:0.25;fill:none" /><text x="185.0" y="50" text-anchor="end" font-size="5.0" style="stroke:none;stroke-width:1.0;fill:black;font-family:Times New Roman">X5</text><text x="188.5" y="50.0" text-anchor="end" font-size="3.5" style="stroke:none;stroke-width:1.0;fill:black;font-family:sans-serif">1</text><circle cx="200.0" cy="50" r="1.25" style="stroke:black;stroke-width:0.25;fill:none" /><text x="198.5" y="50.0" text-anchor="end" font-size="3.5" style="stroke:none;stroke-width:1.0;fill:black;font-family:sans-serif">3</text><circle cx="210.0" cy="50" r="1.25" style="stroke:black;stroke-width:0.25;fill:none" /><text x="208.5" y="50.0" text-anchor="end" font-size="3.5" style="stroke:none;stroke-width:1.0;fill:black;font-family:sans-serif">5</text></g><g class="symbol"><line x1="190.0" y1="85.0" x2="190.0" y2="87.5" style="stroke:black;stroke-width:0.25;fill:none" /><line x1="190.0" y1="92.5" x2="190.0" y2="95.0" style="stroke:black;stroke-width:0.25;fill:none" /><line x1="190.0" y1="92.5" x2="187.5" y2="87.5" style="stroke:black;stroke-width:0.25;fill:none" /><text x="185.0" y="90.0" text-anchor="end" font-size="5.0" style="stroke:none;stroke-width:1.0;fill:black;font-family:Times New Roman">-K5</text><text x="188.5" y="85.0" text-anchor="end" font-size="3.5" style="stroke:none;stroke-width:1.0;fill:black;font-family:sans-serif">1</text><text x="188.5" y="95.0" text-anchor="end" font-size="3.5" style="stroke:none;stroke-width:1.0;fill:black;font-family:sans-serif">2</text><line x1="200.0" y1="85.0" x2="200.0" y2="87.5" style="stroke:black;stroke-width:0.25;fill:none" /><line x1="200.0" y1="92.5" x2="200.0" y2="95.0" style="stroke:black;stroke-width:0.25;fill:none" /><line x1="200.0" y1="92.5" x2="197.5" y2="87.5" style="stroke:black;stroke-width:0.25;fill:none" /><text x="198.5" y="85.0" text-anchor="end" font-size="3.5" style="stroke:none;stroke-width:1.0;fill:black;font-family:sans-serif">3</text><text x="198.5" y="95.0" text-anchor="end" font-size="3.5" style="stroke:none;stroke-width:1.0;fill:black;font-family:sans-serif">4</text><line x1="210.0" y1="85.0" x2="210.0" y2="87.5" style="stroke:black;stroke-width:0.25;fill:none" /><line x1="210.0" y1="92.5" x2="210.0" y2="95.0" style="stroke:black;stroke-width:0.25;fill:none" /><line x1="210.0" y1="92.5" x2="207.5" y2="87.5" style="stroke:black;stroke-width:0.25;fill:none" /><text x="208.5" y="85.0" text-anchor="end" font-size="3.5" style="stroke:none;stroke-width:1.0;fill:black;font-family:sans-serif">5</text><text x="208.5" y="95.0" text-anchor="end" font-size="3.5" style="stroke:none;stroke-width:1.0;fill:black;font-family:sans-serif">6</text></g><g class="symbol"><line x1="190.0" y1="125.0" x2="190.0" y2="127.5" style="stroke:black;stroke-width:0.25;fill:none" /><line x1="190.0" y1="132.5" x2="190.0" y2="135.0" style="stroke:black;stroke-width:0.25;fill:none" /><line x1="190.0" y1="127.5" x2="192.5" y2="127.5" style="stroke:black;stroke-width:0.25;fill:none" /><line x1="190.0" y1="132.5" x2="193.05901699437496" y2="126.3819660112501" style="stroke:black;stroke-width:0.25;fill:none" /><text x="185.0" y="130.0" text-anchor="end" font-size="5.0" style="stroke:none;stroke-width:1.0;fill:black;font-family:Times New Roman">-K6</text><text x="188.5" y="125.0" text-anchor="end" font-size="3.5" style="stroke:none;stroke-width:1.0;fill:black;font-family:sans-serif">11</text><text x="188.5" y="135.0" text-anchor="end" font-size="3.5" style="stroke:none;stroke-width:1.0;fill:black;font-family:sans-serif">12</text><line x1="200.0" y1="125.0" x2="200.0" y2="127.5" style="stroke:black;stroke-width:0.25;fill:none" /><line x1="200.0" y1="132.5" x2="200.0" y2="135.0" style="stroke:black;stroke-width:0.25;fill:none" /><line x1="200.0" y1="127.5" x2="202.5" y2="127.5" style="stroke:black;stroke-width:0.25;fill:none" /><line x1="200.0" y1="132.5" x2="203.05901699437496" y2="126.3819660112501" style="stroke:black;stroke-width:0.25;fill:none" /><text x="198.5" y="125.0" text-anchor="end" font-size="3.5" style="stroke:none;stroke-width:1.0;fill:black;font-family:sans-serif">13</text><text x="198.5" y="135.0" text-anchor="end" font-size="3.5" style="stroke:none;stroke-width:1.0;fill:black;font-family:sans-serif">14</text><line x1="210.0" y1="125.0" x2="210.0" y2="127.5" style="stroke:black;stroke-width:0.25;fill:none" /><line x1="210.0" y1="132.5" x2="210.0" y2="135.0" style="stroke:black;stroke-width:0.25;fill:none" /><line x1="210.0" y1="127.5" x2="212.5" y2="127.5" style="stroke:black;stroke-width:0.25;fill:none" /><line x1="210.0" y1="132.5" x2="213.05901699437496" y2="126.3819660112501" style="stroke:black;stroke-width:0.25;fill:none" /><text x="208.5" y="125.0" text-anchor="end" font-size="3.5" style="stroke:none;stroke-width:1.0;fill:black;font-family:sans-serif">15</text><text x="208.5" y="135.0" text-anchor="end" font-size="3.5" style="stroke:none;stroke-width:1.0;fill:black;font-family:sans-serif">16</text></g><g class="symbol"><line x1="190.0" y1="165.0" x2="190.0" y2="166.25" style="stroke:black;stroke-width:0.25;fill:none" /><line x1="190.0" y1="166.25" x2="190.0" y2="168.75" style="stroke:black;stroke-width:0.25;fill:none" /><line x1="190.0" y1="168.75" x2="187.5" y2="168.75" style="stroke:black;stroke-width:0.25;fill:none" /><line x1="187.5" y1="168.75" x2="187.5" y2="171.25" style="stroke:black;stroke-width:0.25;fill:none" /><line x1="187.5" y1="171.25" x2="190.0" y2="171.25" style="stroke:black;stroke-width:0.25;fill:none" /><line x1="190.0" y1="171.25" x2="190.0" y2="173.75" style="stroke:black;stroke-width:0.25;fill:none" /><line x1="190.0" y1="173.75" x2="190.0" y2="175.0" style="stroke:black;stroke-width:0.25;fill:none" /><text x="185.0" y="170.0" text-anchor="end" font-size="5.0" style="stroke:none;stroke-width:1.0;fill:black;font-family:Times New Roman">-F3</text><text x="188.5" y="165.0" text-anchor="end" font-size="3.5" style="stroke:none;stroke-width:1.0;fill:black;font-family:sans-serif">1</text><text x="188.5" y="175.0" text-anchor="end" font-size="3.5" style="stroke:none;stroke-width:1.0;fill:black;font-family:sans-serif">2</text><line x1="200.0" y1="165.0" x2="200.0" y2="166.25" style="stroke:black;stroke-width:0.25;fill:none" /><line x1="200.0" y1="166.25" x2="200.0" y2="168.75" style="stroke:black;stroke-width:0.25;fill:none" /><line x1="200.0" y1="168.75" x2="197.5" y2="168.75" style="stroke:black;stroke-width:0.25;fill:none" /><line x1="197.5" y1="168.75" x2="197.5" y2="171.25" style="stroke:black;stroke-width:0.25;fill:none" /><line x1="197.5" y1="171.25" x2="200.0" y2="171.25" style="stroke:black;stroke-width:0.25;fill:none" /><line x1="200.0" y1="171.25" x2="200.0" y2="173.75" style="stroke:black;stroke-width:0.25;fill:none" /><line x1="200.0" y1="173.75" x2="200.0" y2="175.0" style="stroke:black;stroke-width:0.25;fill:none" /><text x="198.5" y="165.0" text-anchor="end" font-size="3.5" style="stroke:none;stroke-width:1.0;fill:black;font-family:sans-serif">3</text><text x="198.5" y="175.0" text-anchor="end" font-size="3.5" style="stroke:none;stroke-width:1.0;fill:black;font-family:sans-serif">4</text><line x1="210.0" y1="165.0" x2="210.0" y2="166.25" style="stroke:black;stroke-width:0.25;fill:none" /><line x1="210.0" y1="166.25" x2="210.0" y2="168.75" style="stroke:black;stroke-width:0.25;fill:none" /><line x1="210.0" y1="168.75" x2="207.5" y2="168.75" style="stroke:black;stroke-width:0.25;fill:none" /><line x1="207.5" y1="168.75" x2="207.5" y2="171.25" style="stroke:black;stroke-width:0.25;fill:none" /><line x1="207.5" y1="171.25" x2="210.0" y2="171.25" style="stroke:black;stroke-width:0.25;fill:none" /><line x1="210.0" y1="171.25" x2="210.0" y2="173.75" style="stroke:black;stroke-width:0.25;fill:none" /><line x1="210.0" y1="173.75" x2="210.0" y2="175.0" style="stroke:black;stroke-width:0.25;fill:none" /><text x="208.5" y="165.0" text-anchor="end" font-size="3.5" style="stroke:none;stroke-width:1.0;fill:black;font-family:sans-serif">5</text><text x="208.5" y="175.0" text-anchor="end" font-size="3.5" style="stroke:none;stroke-width:1.0;fill:black;font-family:sans-serif">6</text></g><g class="symbol"><circle cx="190.0" cy="210.0" r="1.25" style="stroke:black;stroke-width:0.25;fill:none" /><text x="185.0" y="210.0" text-anchor="end" font-size="5.0" style="stroke:none;stroke-width:1.0;fill:black;font-family:Times New Roman">X6</text><text x="188.5" y="210.0" text-anchor="end" font-size="3.5" style="stroke:none;stroke-width:1.0;fill:black;font-family:sans-serif">U</text><circle cx="200.0" cy="210.0" r="1.25" style="stroke:black;stroke-width:0.25;fill:none" /><text x="198.5" y="210.0" text-anchor="end" font-size="3.5" style="stroke:none;stroke-width:1.0;fill:black;font-family:sans-serif">W</text><circle cx="210.0" cy="210.0" r="1.25" style="stroke:black;stroke-width:0.25;fill:none" /><text x="208.5" y="210.0" text-anchor="end" font-size="3.5" style="stroke:none;stroke-width:1.0;fill:black;font-family:sans-serif">Y</text></g><line x1="190.0" y1="50" x2="190.0" y2="85.0" style="stroke:black;stroke-width:0.25;fill:none" /><line x1="200.0" y1="50" x2="200.0" y2="85.0" style="stroke:black;stroke-width:0.25;fill:none" /><line x1="210.0" y1="50" x2="210.0" y2="85.0" style="stroke:black;stroke-width:0.25;fill:none" /><line x1="190.0" y1="95.0" x2="190.0" y2="125.0" style="stroke:black;stroke-width:0.25;fill:none" /><line x1="200.0" y1="95.0" x2="200.0" y2="125.0" style="stroke:black;stroke-width:0.25;fill:none" /><line x1="210.0" y1="95.0" x2="210.0" y2="125.0" style="stroke:black;stroke-width:0.25;fill:none" /><line x1="190.0" y1="135.0" x2="190.0" y2="165.0" style="stroke:black;stroke-width:0.25;fill:none" /><line x1="200.0" y1="135.0" x2="200.0" y2="165.0" style="stroke:black;stroke-width:0.25;fill:none" /><line x1="210.0" y1="135.0" x2="210.0" y2="165.0" style="stroke:black;stroke-width:0.25;fill:none" /><line x1="190.0" y1="175.0" x2="190.0" y2="210.0" style="stroke:black;stroke-width:0.25;fill:none" /><line x1="200.0" y1="175.0" x2="200.0" y2="210.0" style="stroke:black;stroke-width:0.25;fill:none" /><line x1="210.0" y1="175.0" x2="210.0" y2="210.0" style="stroke:black;stroke-width:0.25;fill:none" /></g></svg>