<?xml version='1.0' encoding='utf-8'?>
<svg xmlns="http://www.w3.org/2000/svg" width="363.5mm" height="230mm" viewBox="-25.0 35 363.5 230"><rect x="-25.0" y="35" width="363.5" height="230" fill="white" /><g><g class="symbol"><circle cx="50" cy="60" r="1.25" style="stroke:black;stroke-width:0.25;fill:none" /><text x="45.0" y="60" text-anchor="end" dominant-baseline="auto" font-size="5.0" style="stroke:none;stroke-width:1.0;fill:black;font-family:Times New Roman">X001</text><text x="48.5" y="60.0" text-anchor="end" dominant-baseline="auto" font-size="3.5" style="stroke:none;stroke-width:1.0;fill:black;font-family:sans-serif">1</text><circle cx="60.0" cy="60" r="1.25" style="stroke:black;stroke-width:0.25;fill:none" /><text x="58.5" y="60.0" text-anchor="end" dominant-baseline="auto" font-size="3.5" style="stroke:none;stroke-width:1.0;fill:black;font-family:sans-serif">2</text><circle cx="70.0" cy="60" r="1.25" style="stroke:black;stroke-width:0.25;fill:none" /><text x="68.5" y="60.0" text-anchor="end" dominant-baseline="auto" font-size="3.5" style="stroke:none;stroke-width:1.0;fill:black;font-family:sans-serif">3</text></g><g class="symbol"><line x1="50" y1="115.0" x2="50" y2="117.5" style="stroke:black;stroke-width:0.25;fill:none" /><line x1="50" y1="122.5" x2="50" y2="125.0" style="stroke:black;stroke-width:0.25;fill:none" /><line x1="50" y1="122.5" x2="47.5" y2="117.5" style="stroke:black;stroke-width:0.25;fill:none" /><line x1="48.75" y1="116.25" x2="51.25" y2="118.75" style="stroke:black;stroke-width:0.25;fill:none" /><line x1="48.75" y1="118.75" x2="51.25" y2="116.25" style="stroke:black;stroke-width:0.25;fill:none" /><text x="45.0" y="120" text-anchor="end" dominant-baseline="auto" font-size="5.0" style="stroke:none;stroke-width:1.0;fill:black;font-family:Times New Roman">F1</text><text x="48.5" y="115.0" text-anchor="end" dominant-baseline="auto" font-size="3.5" style="stroke:none;stroke-width:1.0;fill:black;font-family:sans-serif">1</text><text x="48.5" y="125.0" text-anchor="end" dominant-baseline="auto" font-size="3.5" style="stroke:none;stroke-width:1.0;fill:black;font-family:sans-serif">2</text><line x1="60.0" y1="115.0" x2="60.0" y2="117.5" style="stroke:black;stroke-width:0.25;fill:none" /><line x1="60.0" y1="122.5" x2="60.0" y2="125.0" style="stroke:black;stroke-width:0.25;fill:none" /><line x1="60.0" y1="122.5" x2="57.5" y2="117.5" style="stroke:black;stroke-width:0.25;fill:none" /><line x1="58.75" y1="116.25" x2="61.25" y2="118.75" style="stroke:black;stroke-width:0.25;fill:none" /><line x1="58.75" y1="118.75" x2="61.25" y2="116.25" style="stroke:black;stroke-width:0.25;fill:none" /><text x="58.5" y="115.0" text-anchor="end" dominant-baseline="auto" font-size="3.5" style="stroke:none;stroke-width:1.0;fill:black;font-family:sans-serif">3</text><text x="58.5" y="125.0" text-anchor="end" dominant-baseline="auto" font-size="3.5" style="stroke:none;stroke-width:1.0;fill:black;font-family:sans-serif">4</text><line x1="70.0" y1="115.0" x2="70.0" y2="117.5" style="stroke:black;stroke-width:0.25;fill:none" /><line x1="70.0" y1="122.5" x2="70.0" y2="125.0" style="stroke:black;stroke-width:0.25;fill:none" /><line x1="70.0" y1="122.5" x2="67.5" y2="117.5" style="stroke:black;stroke-width:0.25;fill:none" /><line x1="68.75" y1="116.25" x2="71.25" y2="118.75" style="stroke:black;stroke-width:0.25;fill:none" /><line x1="68.75" y1="118.75" x2="71.25" y2="116.25" style="stroke:black;stroke-width:0.25;fill:none" /><text x="68.5" y="115.0" text-anchor="end" dominant-baseline="auto" font-size="3.5" style="stroke:none;stroke-width:1.0;fill:black;font-family:sans-serif">5</text><text x="68.5" y="125.0" text-anchor="end" dominant-baseline="auto" font-size="3.5" style="stroke:none;stroke-width:1.0;fill:black;font-family:sans-serif">6</text></g><g class="symbol"><line x1="50" y1="175.0" x2="50" y2="177.5" style="stroke:black;stroke-width:0.25;fill:none" /><line x1="50" y1="182.5" x2="50" y2="185.0" style="stroke:black;stroke-width:0.25;fill:none" /><line x1="50" y1="182.5" x2="47.5" y2="177.5" style="stroke:black;stroke-width:0.25;fill:none" /><text x="48.5" y="175.0" text-anchor="end" dominant-baseline="auto" font-size="3.5" style="stroke:none;stroke-width:1.0;fill:black;font-family:sans-serif">1</text><text x="48.5" y="185.0" text-anchor="end" dominant-baseline="auto" font-size="3.5" style="stroke:none;stroke-width:1.0;fill:black;font-family:sans-serif">2</text><line x1="60.0" y1="175.0" x2="60.0" y2="177.5" style="stroke:black;stroke-width:0.25;fill:none" /><line x1="60.0" y1="182.5" x2="60.0" y2="185.0" style="stroke:black;stroke-width:0.25;fill:none" /><line x1="60.0" y1="182.5" x2="57.5" y2="177.5" style="stroke:black;stroke-width:0.25;fill:none" /><text x="58.5" y="175.0" text-anchor="end" dominant-baseline="auto" font-size="3.5" style="stroke:none;stroke-width:1.0;fill:black;font-family:sans-serif">3</text><text x="58.5" y="185.0" text-anchor="end" dominant-baseline="auto" font-size="3.5" style="stroke:none;stroke-width:1.0;fill:black;font-family:sans-serif">4</text><line x1="70.0" y1="175.0" x2="70.0" y2="177.5" style="stroke:black;stroke-width:0.25;fill:none" /><line x1="70.0" y1="182.5" x2="70.0" y2="185.0" style="stroke:black;stroke-width:0.25;fill:none" /><line x1="70.0" y1="182.5" x2="67.5" y2="177.5" style="stroke:black;stroke-width:0.25;fill:none" /><text x="68.5" y="175.0" text-anchor="end" dominant-baseline="auto" font-size="3.5" style="stroke:none;stroke-width:1.0;fill:black;font-family:sans-serif">5</text><text x="68.5" y="185.0" text-anchor="end" dominant-baseline="auto" font-size="3.5" style="stroke:none;stroke-width:1.0;fill:black;font-family:sans-serif">6</text><polygon points="25.0,177.5 35.0,177.5 35.0,182.5 25.0,182.5" style="stroke:black;stroke-width:0.25;fill:none" /><text x="22.5" y="180" text-anchor="end" dominant-baseline="auto" font-size="5.0" style="stroke:none;stroke-width:1.0;fill:black;font-family:Times New Roman">Q1</text><line x1="35.0" y1="180" x2="67.5" y2="180" style="stroke:black;stroke-width:0.25;fill:none;stroke-dasharray:2, 2" /></g><g class="symbol"><circle cx="50" cy="210.0" r="2.5" style="stroke:black;stroke-width:0.25;fill:none" /><line x1="47.5" y1="210.0" x2="42.5" y2="210.0" style="stroke:black;stroke-width:0.25;fill:none" /><polygon points="7.5,207.5 42.5,207.5 42.5,217.5 7.5,217.5" style="stroke:black;stroke-width:0.25;fill:none" /><line x1="10.0" y1="207.5" x2="10.0" y2="205.0" style="stroke:black;stroke-width:0.25;fill:none" /><text x="9.0" y="206.25" text-anchor="end" dominant-baseline="middle" font-size="3.5" style="stroke:none;stroke-width:1.0;fill:black;font-family:sans-serif">1</text><line x1="20.0" y1="207.5" x2="20.0" y2="205.0" style="stroke:black;stroke-width:0.25;fill:none" /><text x="19.0" y="206.25" text-anchor="end" dominant-baseline="middle" font-size="3.5" style="stroke:none;stroke-width:1.0;fill:black;font-family:sans-serif">2</text><line x1="30.0" y1="207.5" x2="30.0" y2="205.0" style="stroke:black;stroke-width:0.25;fill:none" /><text x="29.0" y="206.25" text-anchor="end" dominant-baseline="middle" font-size="3.5" style="stroke:none;stroke-width:1.0;fill:black;font-family:sans-serif">3</text><line x1="40.0" y1="207.5" x2="40.0" y2="205.0" style="stroke:black;stroke-width:0.25;fill:none" /><text x="39.0" y="206.25" text-anchor="end" dominant-baseline="middle" font-size="3.5" style="stroke:none;stroke-width:1.0;fill:black;font-family:sans-serif">4</text><text x="5.0" y="207.5" text-anchor="end" dominant-baseline="auto" font-size="5.0" style="stroke:none;stroke-width:1.0;fill:black;font-family:Times New Roman">CT1</text></g><g class="symbol"><circle cx="50" cy="240" r="1.25" style="stroke:black;stroke-width:0.25;fill:none" /><text x="45.0" y="240" text-anchor="end" dominant-baseline="auto" font-size="5.0" style="stroke:none;stroke-width:1.0;fill:black;font-family:Times New Roman">X006</text><text x="48.5" y="240.0" text-anchor="end" dominant-baseline="auto" font-size="3.5" style="stroke:none;stroke-width:1.0;fill:black;font-family:sans-serif">1</text><circle cx="60.0" cy="240" r="1.25" style="stroke:black;stroke-width:0.25;fill:none" /><text x="58.5" y="240.0" text-anchor="end" dominant-baseline="auto" font-size="3.5" style="stroke:none;stroke-width:1.0;fill:black;font-family:sans-serif">2</text><circle cx="70.0" cy="240" r="1.25" style="stroke:black;stroke-width:0.25;fill:none" /><text x="68.5" y="240.0" text-anchor="end" dominant-baseline="auto" font-size="3.5" style="stroke:none;stroke-width:1.0;fill:black;font-family:sans-serif">3</text></g><g class="symbol"><circle cx="10" cy="170.0" r="1.25" style="stroke:black;stroke-width:0.25;fill:none" /><text x="15.0" y="170.0" text-anchor="start" dominant-baseline="auto" font-size="5.0" style="stroke:none;stroke-width:1.0;fill:black;font-family:Times New Roman">X102</text><text x="8.5" y="170.0" text-anchor="end" dominant-baseline="auto" font-size="3.5" style="stroke:none;stroke-width:1.0;fill:black;font-family:sans-serif">1</text></g><g class="symbol"><circle cx="20" cy="180.0" r="1.25" style="stroke:black;stroke-width:0.25;fill:none" /><text x="25.0" y="180.0" text-anchor="start" dominant-baseline="auto" font-size="5.0" style="stroke:none;stroke-width:1.0;fill:black;font-family:Times New Roman">X103</text><text x="18.5" y="180.0" text-anchor="end" dominant-baseline="auto" font-size="3.5" style="stroke:none;stroke-width:1.0;fill:black;font-family:sans-serif">1</text></g><g class="symbol"><circle cx="30" cy="190.0" r="1.25" style="stroke:black;stroke-width:0.25;fill:none" /><text x="35.0" y="190.0" text-anchor="start" dominant-baseline="auto" font-size="5.0" style="stroke:none;stroke-width:1.0;fill:black;font-family:Times New Roman">AI</text></g><g class="symbol"><circle cx="40" cy="200.0" r="1.25" style="stroke:black;stroke-width:0.25;fill:none" /><text x="45.0" y="200.0" text-anchor="start" dominant-baseline="auto" font-size="5.0" style="stroke:none;stroke-width:1.0;fill:black;font-family:Times New Roman">AI</text></g><line x1="10" y1="170.0" x2="10.0" y2="205.0" style="stroke:black;stroke-width:0.25;fill:none" /><line x1="20" y1="180.0" x2="20.0" y2="205.0" style="stroke:black;stroke-width:0.25;fill:none" /><line x1="30" y1="190.0" x2="30.0" y2="205.0" style="stroke:black;stroke-width:0.25;fill:none" /><line x1="40" y1="200.0" x2="40.0" y2="205.0" style="stroke:black;stroke-width:0.25;fill:none" /><line x1="50" y1="60" x2="50" y2="115.0" style="stroke:black;stroke-width:0.25;fill:none" /><line x1="60.0" y1="60" x2="60.0" y2="115.0" style="stroke:black;stroke-width:0.25;fill:none" /><line x1="70.0" y1="60" x2="70.0" y2="115.0" style="stroke:black;stroke-width:0.25;fill:none" /><line x1="50" y1="125.0" x2="50" y2="175.0" style="stroke:black;stroke-width:0.25;fill:none" /><line x1="60.0" y1="125.0" x2="60.0" y2="175.0" style="stroke:black;stroke-width:0.25;fill:none" /><line x1="70.0" y1="125.0" x2="70.0" y2="175.0" style="stroke:black;stroke-width:0.25;fill:none" /><line x1="50" y1="185.0" x2="50" y2="240" style="stroke:black;stroke-width:0.25;fill:none" /><line x1="60.0" y1="185.0" x2="60.0" y2="240" style="stroke:black;stroke-width:0.25;fill:none" /><line x1="70.0" y1="185.0" x2="70.0" y2="240" style="stroke:black;stroke-width:0.25;fill:none" /><g class="symbol"><circle cx="170" cy="60" r="1.25" style="stroke:black;stroke-width:0.25;fill:none" /><text x="165.0" y="60" text-anchor="end" dominant-baseline="auto" font-size="5.0" style="stroke:none;stroke-width:1.0;fill:black;font-family:Times New Roman">X001</text><text x="168.5" y="60.0" text-anchor="end" dominant-baseline="auto" font-size="3.5" style="stroke:none;stroke-width:1.0;fill:black;font-family:sans-serif">4</text><circle cx="180.0" cy="60" r="1.25" style="stroke:black;stroke-width:0.25;fill:none" /><text x="178.5" y="60.0" text-anchor="end" dominant-baseline="auto" font-size="3.5" style="stroke:none;stroke-width:1.0;fill:black;font-family:sans-serif">5</text><circle cx="190.0" cy="60" r="1.25" style="stroke:black;stroke-width:0.25;fill:none" /><text x="188.5" y="60.0" text-anchor="end" dominant-baseline="auto" font-size="3.5" style="stroke:none;stroke-width:1.0;fill:black;font-family:sans-serif">6</text></g><g class="symbol"><line x1="170" y1="115.0" x2="170" y2="117.5" style="stroke:black;stroke-width:0.25;fill:none" /><line x1="170" y1="122.5" x2="170" y2="125.0" style="stroke:black;stroke-width:0.25;fill:none" /><line x1="170" y1="122.5" x2="167.5" y2="117.5" style="stroke:black;stroke-width:0.25;fill:none" /><line x1="168.75" y1="116.25" x2="171.25" y2="118.75" style="stroke:black;stroke-width:0.25;fill:none" /><line x1="168.75" y1="118.75" x2="171.25" y2="116.25" style="stroke:black;stroke-width:0.25;fill:none" /><text x="165.0" y="120" text-anchor="end" dominant-baseline="auto" font-size="5.0" style="stroke:none;stroke-width:1.0;fill:black;font-family:Times New Roman">F2</text><text x="168.5" y="115.0" text-anchor="end" dominant-baseline="auto" font-size="3.5" style="stroke:none;stroke-width:1.0;fill:black;font-family:sans-serif">1</text><text x="168.5" y="125.0" text-anchor="end" dominant-baseline="auto" font-size="3.5" style="stroke:none;stroke-width:1.0;fill:black;font-family:sans-serif">2</text><line x1="180.0" y1="115.0" x2="180.0" y2="117.5" style="stroke:black;stroke-width:0.25;fill:none" /><line x1="180.0" y1="122.5" x2="180.0" y2="125.0" style="stroke:black;stroke-width:0.25;fill:none" /><line x1="180.0" y1="122.5" x2="177.5" y2="117.5" style="stroke:black;stroke-width:0.25;fill:none" /><line x1="178.75" y1="116.25" x2="181.25" y2="118.75" style="stroke:black;stroke-width:0.25;fill:none" /><line x1="178.75" y1="118.75" x2="181.25" y2="116.25" style="stroke:black;stroke-width:0.25;fill:none" /><text x="178.5" y="115.0" text-anchor="end" dominant-baseline="auto" font-size="3.5" style="stroke:none;stroke-width:1.0;fill:black;font-family:sans-serif">3</text><text x="178.5" y="125.0" text-anchor="end" dominant-baseline="auto" font-size="3.5" style="stroke:none;stroke-width:1.0;fill:black;font-family:sans-serif">4</text><line x1="190.0" y1="115.0" x2="190.0" y2="117.5" style="stroke:black;stroke-width:0.25;fill:none" /><line x1="190.0" y1="122.5" x2="190.0" y2="125.0" style="stroke:black;stroke-width:0.25;fill:none" /><line x1="190.0" y1="122.5" x2="187.5" y2="117.5" style="stroke:black;stroke-width:0.25;fill:none" /><line x1="188.75" y1="116.25" x2="191.25" y2="118.75" style="stroke:black;stroke-width:0.25;fill:none" /><line x1="188.75" y1="118.75" x2="191.25" y2="116.25" style="stroke:black;stroke-width:0.25;fill:none" /><text x="188.5" y="115.0" text-anchor="end" dominant-baseline="auto" font-size="3.5" style="stroke:none;stroke-width:1.0;fill:black;font-family:sans-serif">5</text><text x="188.5" y="125.0" text-anchor="end" dominant-baseline="auto" font-size="3.5" style="stroke:none;stroke-width:1.0;fill:black;font-family:sans-serif">6</text></g><g class="symbol"><line x1="170" y1="175.0" x2="170" y2="177.5" style="stroke:black;stroke-width:0.25;fill:none" /><line x1="170" y1="182.5" x2="170" y2="185.0" style="stroke:black;stroke-width:0.25;fill:none" /><line x1="170" y1="182.5" x2="167.5" y2="177.5" style="stroke:black;stroke-width:0.25;fill:none" /><text x="168.5" y="175.0" text-anchor="end" dominant-baseline="auto" font-size="3.5" style="stroke:none;stroke-width:1.0;fill:black;font-family:sans-serif">1</text><text x="168.5" y="185.0" text-anchor="end" dominant-baseline="auto" font-size="3.5" style="stroke:none;stroke-width:1.0;fill:black;font-family:sans-serif">2</text><line x1="180.0" y1="175.0" x2="180.0" y2="177.5" style="stroke:black;stroke-width:0.25;fill:none" /><line x1="180.0" y1="182.5" x2="180.0" y2="185.0" style="stroke:black;stroke-width:0.25;fill:none" /><line x1="180.0" y1="182.5" x2="177.5" y2="177.5" style="stroke:black;stroke-width:0.25;fill:none" /><text x="178.5" y="175.0" text-anchor="end" dominant-baseline="auto" font-size="3.5" style="stroke:none;stroke-width:1.0;fill:black;font-family:sans-serif">3</text><text x="178.5" y="185.0" text-anchor="end" dominant-baseline="auto" font-size="3.5" style="stroke:none;stroke-width:1.0;fill:black;font-family:sans-serif">4</text><line x1="190.0" y1="175.0" x2="190.0" y2="177.5" style="stroke:black;stroke-width:0.25;fill:none" /><line x1="190.0" y1="182.5" x2="190.0" y2="185.0" style="stroke:black;stroke-width:0.25;fill:none" /><line x1="190.0" y1="182.5" x2="187.5" y2="177.5" style="stroke:black;stroke-width:0.25;fill:none" /><text x="188.5" y="175.0" text-anchor="end" dominant-baseline="auto" font-size="3.5" style="stroke:none;stroke-width:1.0;fill:black;font-family:sans-serif">5</text><text x="188.5" y="185.0" text-anchor="end" dominant-baseline="auto" font-size="3.5" style="stroke:none;stroke-width:1.0;fill:black;font-family:sans-serif">6</text><polygon points="145.0,177.5 155.0,177.5 155.0,182.5 145.0,182.5" style="stroke:black;stroke-width:0.25;fill:none" /><text x="142.5" y="180" text-anchor="end" dominant-baseline="auto" font-size="5.0" style="stroke:none;stroke-width:1.0;fill:black;font-family:Times New Roman">Q2</text><line x1="155.0" y1="180" x2="187.5" y2="180" style="stroke:black;stroke-width:0.25;fill:none;stroke-dasharray:2, 2" /></g><g class="symbol"><circle cx="170" cy="210.0" r="2.5" style="stroke:black;stroke-width:0.25;fill:none" /><line x1="167.5" y1="210.0" x2="162.5" y2="210.0" style="stroke:black;stroke-width:0.25;fill:none" /><polygon points="127.5,207.5 162.5,207.5 162.5,217.5 127.5,217.5" style="stroke:black;stroke-width:0.25;fill:none" /><line x1="130.0" y1="207.5" x2="130.0" y2="205.0" style="stroke:black;stroke-width:0.25;fill:none" /><text x="129.0" y="206.25" text-anchor="end" dominant-baseline="middle" font-size="3.5" style="stroke:none;stroke-width:1.0;fill:black;font-family:sans-serif">1</text><line x1="140.0" y1="207.5" x2="140.0" y2="205.0" style="stroke:black;stroke-width:0.25;fill:none" /><text x="139.0" y="206.25" text-anchor="end" dominant-baseline="middle" font-size="3.5" style="stroke:none;stroke-width:1.0;fill:black;font-family:sans-serif">2</text><line x1="150.0" y1="207.5" x2="150.0" y2="205.0" style="stroke:black;stroke-width:0.25;fill:none" /><text x="149.0" y="206.25" text-anchor="end" dominant-baseline="middle" font-size="3.5" style="stroke:none;stroke-width:1.0;fill:black;font-family:sans-serif">3</text><line x1="160.0" y1="207.5" x2="160.0" y2="205.0" style="stroke:black;stroke-width:0.25;fill:none" /><text x="159.0" y="206.25" text-anchor="end" dominant-baseline="middle" font-size="3.5" style="stroke:none;stroke-width:1.0;fill:black;font-family:sans-serif">4</text><text x="125.0" y="207.5" text-anchor="end" dominant-baseline="auto" font-size="5.0" style="stroke:none;stroke-width:1.0;fill:black;font-family:Times New Roman">CT2</text></g><g class="symbol"><circle cx="170" cy="240" r="1.25" style="stroke:black;stroke-width:0.25;fill:none" /><text x="165.0" y="240" text-anchor="end" dominant-baseline="auto" font-size="5.0" style="stroke:none;stroke-width:1.0;fill:black;font-family:Times New Roman">X006</text><text x="168.5" y="240.0" text-anchor="end" dominant-baseline="auto" font-size="3.5" style="stroke:none;stroke-width:1.0;fill:black;font-family:sans-serif">4</text><circle cx="180.0" cy="240" r="1.25" style="stroke:black;stroke-width:0.25;fill:none" /><text x="178.5" y="240.0" text-anchor="end" dominant-baseline="auto" font-size="3.5" style="stroke:none;stroke-width:1.0;fill:black;font-family:sans-serif">5</text><circle cx="190.0" cy="240" r="1.25" style="stroke:black;stroke-width:0.25;fill:none" /><text x="188.5" y="240.0" text-anchor="end" dominant-baseline="auto" font-size="3.5" style="stroke:none;stroke-width:1.0;fill:black;font-family:sans-serif">6</text></g><g class="symbol"><circle cx="130" cy="170.0" r="1.25" style="stroke:black;stroke-width:0.25;fill:none" /><text x="135.0" y="170.0" text-anchor="start" dominant-baseline="auto" font-size="5.0" style="stroke:none;stroke-width:1.0;fill:black;font-family:Times New Roman">X102</text><text x="128.5" y="170.0" text-anchor="end" dominant-baseline="auto" font-size="3.5" style="stroke:none;stroke-width:1.0;fill:black;font-family:sans-serif">2</text></g><g class="symbol"><circle cx="140" cy="180.0" r="1.25" style="stroke:black;stroke-width:0.25;fill:none" /><text x="145.0" y="180.0" text-anchor="start" dominant-baseline="auto" font-size="5.0" style="stroke:none;stroke-width:1.0;fill:black;font-family:Times New Roman">X103</text><text x="138.5" y="180.0" text-anchor="end" dominant-baseline="auto" font-size="3.5" style="stroke:none;stroke-width:1.0;fill:black;font-family:sans-serif">2</text></g><g class="symbol"><circle cx="150" cy="190.0" r="1.25" style="stroke:black;stroke-width:0.25;fill:none" /><text x="155.0" y="190.0" text-anchor="start" dominant-baseline="auto" font-size="5.0" style="stroke:none;stroke-width:1.0;fill:black;font-family:Times New Roman">AI</text></g><g class="symbol"><circle cx="160" cy="200.0" r="1.25" style="stroke:black;stroke-width:0.25;fill:none" /><text x="165.0" y="200.0" text-anchor="start" dominant-baseline="auto" font-size="5.0" style="stroke:none;stroke-width:1.0;fill:black;font-family:Times New Roman">AI</text></g><line x1="130" y1="170.0" x2="130.0" y2="205.0" style="stroke:black;stroke-width:0.25;fill:none" /><line x1="140" y1="180.0" x2="140.0" y2="205.0" style="stroke:black;stroke-width:0.25;fill:none" /><line x1="150" y1="190.0" x2="150.0" y2="205.0" style="stroke:black;stroke-width:0.25;fill:none" /><line x1="160" y1="200.0" x2="160.0" y2="205.0" style="stroke:black;stroke-width:0.25;fill:none" /><line x1="170" y1="60" x2="170" y2="115.0" style="stroke:black;stroke-width:0.25;fill:none" /><line x1="180.0" y1="60" x2="180.0" y2="115.0" style="stroke:black;stroke-width:0.25;fill:none" /><line x1="190.0" y1="60" x2="190.0" y2="115.0" style="stroke:black;stroke-width:0.25;fill:none" /><line x1="170" y1="125.0" x2="170" y2="175.0" style="stroke:black;stroke-width:0.25;fill:none" /><line x1="180.0" y1="125.0" x2="180.0" y2="175.0" style="stroke:black;stroke-width:0.25;fill:none" /><line x1="190.0" y1="125.0" x2="190.0" y2="175.0" style="stroke:black;stroke-width:0.25;fill:none" /><line x1="170" y1="185.0" x2="170" y2="240" style="stroke:black;stroke-width:0.25;fill:none" /><line x1="180.0" y1="185.0" x2="180.0" y2="240" style="stroke:black;stroke-width:0.25;fill:none" /><line x1="190.0" y1="185.0" x2="190.0" y2="240" style="stroke:black;stroke-width:0.25;fill:none" /><g class="symbol"><circle cx="290" cy="60" r="1.25" style="stroke:black;stroke-width:0.25;fill:none" /><text x="285.0" y="60" text-anchor="end" dominant-baseline="auto" font-size="5.0" style="stroke:none;stroke-width:1.0;fill:black;font-family:Times New Roman">X001</text><text x="288.5" y="60.0" text-anchor="end" dominant-baseline="auto" font-size="3.5" style="stroke:none;stroke-width:1.0;fill:black;font-family:sans-serif">7</text><circle cx="300.0" cy="60" r="1.25" style="stroke:black;stroke-width:0.25;fill:none" /><text x="298.5" y="60.0" text-anchor="end" dominant-baseline="auto" font-size="3.5" style="stroke:none;stroke-width:1.0;fill:black;font-family:sans-serif">8</text><circle cx="310.0" cy="60" r="1.25" style="stroke:black;stroke-width:0.25;fill:none" /><text x="308.5" y="60.0" text-anchor="end" dominant-baseline="auto" font-size="3.5" style="stroke:none;stroke-width:1.0;fill:black;font-family:sans-serif">9</text></g><g class="symbol"><line x1="290" y1="115.0" x2="290" y2="117.5" style="stroke:black;stroke-width:0.25;fill:none" /><line x1="290" y1="122.5" x2="290" y2="125.0" style="stroke:black;stroke-width:0.25;fill:none" /><line x1="290" y1="122.5" x2="287.5" y2="117.5" style="stroke:black;stroke-width:0.25;fill:none" /><line x1="288.75" y1="116.25" x2="291.25" y2="118.75" style="stroke:black;stroke-width:0.25;fill:none" /><line x1="288.75" y1="118.75" x2="291.25" y2="116.25" style="stroke:black;stroke-width:0.25;fill:none" /><text x="285.0" y="120" text-anchor="end" dominant-baseline="auto" font-size="5.0" style="stroke:none;stroke-width:1.0;fill:black;font-family:Times New Roman">F3</text><text x="288.5" y="115.0" text-anchor="end" dominant-baseline="auto" font-size="3.5" style="stroke:none;stroke-width:1.0;fill:black;font-family:sans-serif">1</text><text x="288.5" y="125.0" text-anchor="end" dominant-baseline="auto" font-size="3.5" style="stroke:none;stroke-width:1.0;fill:black;font-family:sans-serif">2</text><line x1="300.0" y1="115.0" x2="300.0" y2="117.5" style="stroke:black;stroke-width:0.25;fill:none" /><line x1="300.0" y1="122.5" x2="300.0" y2="125.0" style="stroke:black;stroke-width:0.25;fill:none" /><line x1="300.0" y1="122.5" x2="297.5" y2="117.5" style="stroke:black;stroke-width:0.25;fill:none" /><line x1="298.75" y1="116.25" x2="301.25" y2="118.75" style="stroke:black;stroke-width:0.25;fill:none" /><line x1="298.75" y1="118.75" x2="301.25" y2="116.25" style="stroke:black;stroke-width:0.25;fill:none" /><text x="298.5" y="115.0" text-anchor="end" dominant-baseline="auto" font-size="3.5" style="stroke:none;stroke-width:1.0;fill:black;font-family:sans-serif">3</text><text x="298.5" y="125.0" text-anchor="end" dominant-baseline="auto" font-size="3.5" style="stroke:none;stroke-width:1.0;fill:black;font-family:sans-serif">4</text><line x1="310.0" y1="115.0" x2="310.0" y2="117.5" style="stroke:black;stroke-width:0.25;fill:none" /><line x1="310.0" y1="122.5" x2="310.0" y2="125.0" style="stroke:black;stroke-width:0.25;fill:none" /><line x1="310.0" y1="122.5" x2="307.5" y2="117.5" style="stroke:black;stroke-width:0.25;fill:none" /><line x1="308.75" y1="116.25" x2="311.25" y2="118.75" style="stroke:black;stroke-width:0.25;fill:none" /><line x1="308.75" y1="118.75" x2="311.25" y2="116.25" style="stroke:black;stroke-width:0.25;fill:none" /><text x="308.5" y="115.0" text-anchor="end" dominant-baseline="auto" font-size="3.5" style="stroke:none;stroke-width:1.0;fill:black;font-family:sans-serif">5</text><text x="308.5" y="125.0" text-anchor="end" dominant-baseline="auto" font-size="3.5" style="stroke:none;stroke-width:1.0;fill:black;font-family:sans-serif">6</text></g><g class="symbol"><line x1="290" y1="175.0" x2="290" y2="177.5" style="stroke:black;stroke-width:0.25;fill:none" /><line x1="290" y1="182.5" x2="290" y2="185.0" style="stroke:black;stroke-width:0.25;fill:none" /><line x1="290" y1="182.5" x2="287.5" y2="177.5" style="stroke:black;stroke-width:0.25;fill:none" /><text x="288.5" y="175.0" text-anchor="end" dominant-baseline="auto" font-size="3.5" style="stroke:none;stroke-width:1.0;fill:black;font-family:sans-serif">1</text><text x="288.5" y="185.0" text-anchor="end" dominant-baseline="auto" font-size="3.5" style="stroke:none;stroke-width:1.0;fill:black;font-family:sans-serif">2</text><line x1="300.0" y1="175.0" x2="300.0" y2="177.5" style="stroke:black;stroke-width:0.25;fill:none" /><line x1="300.0" y1="182.5" x2="300.0" y2="185.0" style="stroke:black;stroke-width:0.25;fill:none" /><line x1="300.0" y1="182.5" x2="297.5" y2="177.5" style="stroke:black;stroke-width:0.25;fill:none" /><text x="298.5" y="175.0" text-anchor="end" dominant-baseline="auto" font-size="3.5" style="stroke:none;stroke-width:1.0;fill:black;font-family:sans-serif">3</text><text x="298.5" y="185.0" text-anchor="end" dominant-baseline="auto" font-size="3.5" style="stroke:none;stroke-width:1.0;fill:black;font-family:sans-serif">4</text><line x1="310.0" y1="175.0" x2="310.0" y2="177.5" style="stroke:black;stroke-width:0.25;fill:none" /><line x1="310.0" y1="182.5" x2="310.0" y2="185.0" style="stroke:black;stroke-width:0.25;fill:none" /><line x1="310.0" y1="182.5" x2="307.5" y2="177.5" style="stroke:black;stroke-width:0.25;fill:none" /><text x="308.5" y="175.0" text-anchor="end" dominant-baseline="auto" font-size="3.5" style="stroke:none;stroke-width:1.0;fill:black;font-family:sans-serif">5</text><text x="308.5" y="185.0" text-anchor="end" dominant-baseline="auto" font-size="3.5" style="stroke:none;stroke-width:1.0;fill:black;font-family:sans-serif">6</text><polygon points="265.0,177.5 275.0,177.5 275.0,182.5 265.0,182.5" style="stroke:black;stroke-width:0.25;fill:none" /><text x="262.5" y="180" text-anchor="end" dominant-baseline="auto" font-size="5.0" style="stroke:none;stroke-width:1.0;fill:black;font-family:Times New Roman">Q3</text><line x1="275.0" y1="180" x2="307.5" y2="180" style="stroke:black;stroke-width:0.25;fill:none;stroke-dasharray:2, 2" /></g><g class="symbol"><circle cx="290" cy="210.0" r="2.5" style="stroke:black;stroke-width:0.25;fill:none" /><line x1="287.5" y1="210.0" x2="282.5" y2="210.0" style="stroke:black;stroke-width:0.25;fill:none" /><polygon points="247.5,207.5 282.5,207.5 282.5,217.5 247.5,217.5" style="stroke:black;stroke-width:0.25;fill:none" /><line x1="250.0" y1="207.5" x2="250.0" y2="205.0" style="stroke:black;stroke-width:0.25;fill:none" /><text x="249.0" y="206.25" text-anchor="end" dominant-baseline="middle" font-size="3.5" style="stroke:none;stroke-width:1.0;fill:black;font-family:sans-serif">1</text><line x1="260.0" y1="207.5" x2="260.0" y2="205.0" style="stroke:black;stroke-width:0.25;fill:none" /><text x="259.0" y="206.25" text-anchor="end" dominant-baseline="middle" font-size="3.5" style="stroke:none;stroke-width:1.0;fill:black;font-family:sans-serif">2</text><line x1="270.0" y1="207.5" x2="270.0" y2="205.0" style="stroke:black;stroke-width:0.25;fill:none" /><text x="269.0" y="206.25" text-anchor="end" dominant-baseline="middle" font-size="3.5" style="stroke:none;stroke-width:1.0;fill:black;font-family:sans-serif">3</text><line x1="280.0" y1="207.5" x2="280.0" y2="205.0" style="stroke:black;stroke-width:0.25;fill:none" /><text x="279.0" y="206.25" text-anchor="end" dominant-baseline="middle" font-size="3.5" style="stroke:none;stroke-width:1.0;fill:black;font-family:sans-serif">4</text><text x="245.0" y="207.5" text-anchor="end" dominant-baseline="auto" font-size="5.0" style="stroke:none;stroke-width:1.0;fill:black;font-family:Times New Roman">CT3</text></g><g class="symbol"><circle cx="290" cy="240" r="1.25" style="stroke:black;stroke-width:0.25;fill:none" /><text x="285.0" y="240" text-anchor="end" dominant-baseline="auto" font-size="5.0" style="stroke:none;stroke-width:1.0;fill:black;font-family:Times New Roman">X006</text><text x="288.5" y="240.0" text-anchor="end" dominant-baseline="auto" font-size="3.5" style="stroke:none;stroke-width:1.0;fill:black;font-family:sans-serif">7</text><circle cx="300.0" cy="240" r="1.25" style="stroke:black;stroke-width:0.25;fill:none" /><text x="298.5" y="240.0" text-anchor="end" dominant-baseline="auto" font-size="3.5" style="stroke:none;stroke-width:1.0;fill:black;font-family:sans-serif">8</text><circle cx="310.0" cy="240" r="1.25" style="stroke:black;stroke-width:0.25;fill:none" /><text x="308.5" y="240.0" text-anchor="end" dominant-baseline="auto" font-size="3.5" style="stroke:none;stroke-width:1.0;fill:black;font-family:sans-serif">9</text></g><g class="symbol"><circle cx="250" cy="170.0" r="1.25" style="stroke:black;stroke-width:0.25;fill:none" /><text x="255.0" y="170.0" text-anchor="start" dominant-baseline="auto" font-size="5.0" style="stroke:none;stroke-width:1.0;fill:black;font-family:Times New Roman">X102</text><text x="248.5" y="170.0" text-anchor="end" dominant-baseline="auto" font-size="3.5" style="stroke:none;stroke-width:1.0;fill:black;font-family:sans-serif">3</text></g><g class="symbol"><circle cx="260" cy="180.0" r="1.25" style="stroke:black;stroke-width:0.25;fill:none" /><text x="265.0" y="180.0" text-anchor="start" dominant-baseline="auto" font-size="5.0" style="stroke:none;stroke-width:1.0;fill:black;font-family:Times New Roman">X103</text><text x="258.5" y="180.0" text-anchor="end" dominant-baseline="auto" font-size="3.5" style="stroke:none;stroke-width:1.0;fill:black;font-family:sans-serif">3</text></g><g class="symbol"><circle cx="270" cy="190.0" r="1.25" style="stroke:black;stroke-width:0.25;fill:none" /><text x="275.0" y="190.0" text-anchor="start" dominant-baseline="auto" font-size="5.0" style="stroke:none;stroke-width:1.0;fill:black;font-family:Times New Roman">AI</text></g><g class="symbol"><circle cx="280" cy="200.0" r="1.25" style="stroke:black;stroke-width:0.25;fill:none" /><text x="285.0" y="200.0" text-anchor="start" dominant-baseline="auto" font-size="5.0" style="stroke:none;stroke-width:1.0;fill:black;font-family:Times New Roman">AI</text></g><line x1="250" y1="170.0" x2="250.0" y2="205.0" style="stroke:black;stroke-width:0.25;fill:none" /><line x1="260" y1="180.0" x2="260.0" y2="205.0" style="stroke:black;stroke-width:0.25;fill:none" /><line x1="270" y1="190.0" x2="270.0" y2="205.0" style="stroke:black;stroke-width:0.25;fill:none" /><line x1="280" y1="200.0" x2="280.0" y2="205.0" style="stroke:black;stroke-width:0.25;fill:none" /><line x1="290" y1="60" x2="290" y2="115.0" style="stroke:black;stroke-width:0.25;fill:none" /><line x1="300.0" y1="60" x2="300.0" y2="115.0" style="stroke:black;stroke-width:0.25;fill:none" /><line x1="310.0" y1="60" x2="310.0" y2="115.0" style="stroke:black;stroke-width:0.25;fill:none" /><line x1="290" y1="125.0" x2="290" y2="175.0" style="stroke:black;stroke-width:0.25;fill:none" /><line x1="300.0" y1="125.0" x2="300.0" y2="175.0" style="stroke:black;stroke-width:0.25;fill:none" /><line x1="310.0" y1="125.0" x2="310.0" y2="175.0" style="stroke:black;stroke-width:0.25;fill:none" /><line x1="290" y1="185.0" x2="290" y2="240" style="stroke:black;stroke-width:0.25;fill:none" /><line x1="300.0" y1="185.0" x2="300.0" y2="240" style="stroke:black;stroke-width:0.25;fill:none" /><line x1="310.0" y1="185.0" x2="310.0" y2="240" style="stroke:black;stroke-width:0.25;fill:none" /></g></svg>